<svg width="20" height="20" viewBox="0 0 20 20" fill="none" xmlns="http://www.w3.org/2000/svg">
<path fill-rule="evenodd" clip-rule="evenodd" d="M10.2018 1C7.70296 1 7.38935 1.01093 6.40791 1.05559C5.42838 1.10044 4.75977 1.25552 4.17474 1.48305C3.56958 1.71806 3.05624 2.03243 2.54482 2.54405C2.03301 3.05547 1.71864 3.56881 1.48286 4.17378C1.25475 4.75901 1.09949 5.42781 1.0554 6.40695C1.0115 7.3884 1 7.70219 1 10.201C1 12.6999 1.01112 13.0125 1.05559 13.994C1.10064 14.9735 1.25571 15.6421 1.48305 16.2271C1.71826 16.8323 2.03262 17.3456 2.54424 17.8571C3.05547 18.3689 3.56881 18.684 4.17359 18.919C4.75901 19.1466 5.42781 19.3016 6.40714 19.3465C7.38859 19.3911 7.702 19.4021 10.2007 19.4021C12.6997 19.4021 13.0123 19.3911 13.9938 19.3465C14.9733 19.3016 15.6427 19.1466 16.2281 18.919C16.8331 18.684 17.3456 18.3689 17.8569 17.8571C18.3687 17.3456 18.6831 16.8323 18.9188 16.2273C19.145 15.6421 19.3003 14.9733 19.3463 13.9942C19.3904 13.0127 19.4019 12.6999 19.4019 10.201C19.4019 7.70219 19.3904 7.38859 19.3463 6.40714C19.3003 5.42762 19.145 4.75901 18.9188 4.17397C18.6831 3.56881 18.3687 3.05547 17.8569 2.54405C17.3451 2.03224 16.8333 1.71787 16.2275 1.48305C15.641 1.25552 14.972 1.10044 13.9924 1.05559C13.011 1.01093 12.6985 1 10.1989 1H10.2018ZM9.37768 2.6566C9.62266 2.65621 9.896 2.6566 10.2031 2.6566C12.6598 2.6566 12.9509 2.66541 13.9211 2.7095C14.8182 2.75052 15.3051 2.90042 15.6294 3.02636C16.0588 3.19313 16.3649 3.39249 16.6868 3.71452C17.0088 4.03656 17.2081 4.34326 17.3753 4.77264C17.5012 5.0966 17.6513 5.58349 17.6922 6.48059C17.7362 7.45053 17.7458 7.7419 17.7458 10.1974C17.7458 12.6529 17.7362 12.9443 17.6922 13.9143C17.6511 14.8114 17.5012 15.2982 17.3753 15.6222C17.2085 16.0516 17.0088 16.3573 16.6868 16.6792C16.3647 17.0012 16.059 17.2006 15.6294 17.3673C15.3054 17.4938 14.8182 17.6434 13.9211 17.6844C12.9511 17.7285 12.6598 17.7381 10.2031 17.7381C7.74622 17.7381 7.45505 17.7285 6.4851 17.6844C5.588 17.643 5.10111 17.4931 4.77659 17.3671C4.3472 17.2004 4.0405 17.001 3.71847 16.679C3.39643 16.3569 3.19708 16.051 3.02992 15.6214C2.90398 15.2975 2.75389 14.8106 2.71306 13.9135C2.66897 12.9435 2.66016 12.6522 2.66016 10.1951C2.66016 7.73806 2.66897 7.44823 2.71306 6.47829C2.75408 5.58118 2.90398 5.0943 3.02992 4.76996C3.19669 4.34058 3.39643 4.03388 3.71847 3.71184C4.0405 3.3898 4.3472 3.19045 4.77659 3.0233C5.10092 2.89678 5.588 2.74727 6.4851 2.70605C7.3339 2.66772 7.66284 2.65621 9.37768 2.6543V2.6566ZM15.1158 4.18593C14.5063 4.18593 14.0117 4.67991 14.0117 5.28967C14.0117 5.89924 14.5063 6.3938 15.1158 6.3938C15.7254 6.3938 16.22 5.89924 16.22 5.28967C16.22 4.6801 15.7254 4.18555 15.1158 4.18555V4.18593ZM10.2017 5.47461C7.59223 5.47461 5.47656 7.59027 5.47656 10.1997C5.47656 12.8092 7.59223 14.9239 10.2017 14.9239C12.8111 14.9239 14.926 12.8092 14.926 10.1997C14.926 7.59027 12.8109 5.47461 10.2015 5.47461H10.2017ZM10.2037 7.13281C11.8975 7.13281 13.2707 8.50588 13.2707 10.1998C13.2707 11.8936 11.8975 13.2668 10.2037 13.2668C8.50978 13.2668 7.13672 11.8936 7.13672 10.1998C7.13672 8.50588 8.50978 7.13281 10.2037 7.13281Z" fill="#101010"/>
<path d="M6.40791 1.05559L6.39427 0.7559L6.39419 0.755904L6.40791 1.05559ZM4.17474 1.48305L4.28334 1.76271L4.28348 1.76265L4.17474 1.48305ZM2.54482 2.54405L2.75687 2.75626L2.75699 2.75614L2.54482 2.54405ZM1.48286 4.17378L1.76238 4.28273L1.76238 4.28272L1.48286 4.17378ZM1.0554 6.40695L0.755702 6.39346L0.755698 6.39355L1.0554 6.40695ZM1.05559 13.994L0.755897 14.0076L0.755906 14.0078L1.05559 13.994ZM1.48305 16.2271L1.20343 16.3358L1.20343 16.3358L1.48305 16.2271ZM2.54424 17.8571L2.75649 17.6451L2.75633 17.6449L2.54424 17.8571ZM4.17359 18.919L4.28227 18.6394L4.28225 18.6394L4.17359 18.919ZM6.40714 19.3465L6.39342 19.6462L6.3935 19.6462L6.40714 19.3465ZM13.9938 19.3465L14.0074 19.6462L14.0075 19.6462L13.9938 19.3465ZM16.2281 18.919L16.1195 18.6394L16.1194 18.6394L16.2281 18.919ZM17.8569 17.8571L17.6448 17.6449L17.6446 17.6451L17.8569 17.8571ZM18.9188 16.2273L19.1983 16.3363L19.1987 16.3355L18.9188 16.2273ZM19.3463 13.9942L19.646 14.0082L19.646 14.0076L19.3463 13.9942ZM19.3463 6.40714L19.646 6.39368L19.646 6.39307L19.3463 6.40714ZM18.9188 4.17397L19.1986 4.06579L19.1984 4.06507L18.9188 4.17397ZM17.8569 2.54405L17.6447 2.75618L17.6448 2.75626L17.8569 2.54405ZM16.2275 1.48305L16.119 1.76275L16.1191 1.76277L16.2275 1.48305ZM13.9924 1.05559L14.0062 0.755904L14.0061 0.7559L13.9924 1.05559ZM9.37768 2.6566H9.07768V2.95707L9.37815 2.9566L9.37768 2.6566ZM13.9211 2.7095L13.9348 2.40982L13.9347 2.40981L13.9211 2.7095ZM15.6294 3.02636L15.738 2.74672L15.738 2.74671L15.6294 3.02636ZM16.6868 3.71452L16.4746 3.92659L16.4746 3.92666L16.6868 3.71452ZM17.3753 4.77264L17.6549 4.66394L17.6549 4.66381L17.3753 4.77264ZM17.6922 6.48059L17.9918 6.46696V6.46695L17.6922 6.48059ZM17.6922 13.9143L17.9918 13.928L17.9918 13.9279L17.6922 13.9143ZM17.3753 15.6222L17.0957 15.5135L17.0956 15.5136L17.3753 15.6222ZM16.6868 16.6792L16.4747 16.467L16.4746 16.467L16.6868 16.6792ZM15.6294 17.3673L15.5208 17.0877L15.5203 17.0879L15.6294 17.3673ZM13.9211 17.6844L13.9347 17.9841L13.9348 17.9841L13.9211 17.6844ZM6.4851 17.6844L6.47127 17.9841L6.47148 17.9841L6.4851 17.6844ZM4.77659 17.3671L4.66797 17.6468L4.66805 17.6468L4.77659 17.3671ZM3.02992 15.6214L2.75031 15.7301L2.75034 15.7302L3.02992 15.6214ZM2.71306 13.9135L2.41337 13.9271L2.41337 13.9271L2.71306 13.9135ZM2.71306 6.47829L2.41338 6.46458L2.41337 6.46466L2.71306 6.47829ZM3.02992 4.76996L2.75027 4.66135L2.75027 4.66137L3.02992 4.76996ZM4.77659 3.0233L4.88542 3.30286L4.88561 3.30279L4.77659 3.0233ZM6.4851 2.70605L6.47157 2.40636L6.47134 2.40637L6.4851 2.70605ZM9.37768 2.6543H9.67768V2.35396L9.37734 2.3543L9.37768 2.6543ZM15.1158 4.18593V4.48593H15.4158V4.18593H15.1158ZM15.1158 4.18555V3.88555H14.8158V4.18555H15.1158ZM10.2018 0.7C7.7014 0.7 7.3825 0.710928 6.39427 0.7559L6.42155 1.35528C7.39621 1.31092 7.70451 1.3 10.2018 1.3V0.7ZM6.39419 0.755904C5.38637 0.802054 4.68514 0.962655 4.066 1.20346L4.28348 1.76265C4.8344 1.54839 5.47039 1.39884 6.42163 1.35528L6.39419 0.755904ZM4.06614 1.2034C3.42504 1.45237 2.87565 1.78875 2.33264 2.33196L2.75699 2.75614C3.23683 2.27612 3.71412 1.98376 4.28334 1.76271L4.06614 1.2034ZM2.33276 2.33184C1.78934 2.87486 1.45303 3.42418 1.20334 4.06484L1.76238 4.28272C1.98425 3.71345 2.27668 3.23609 2.75687 2.75626L2.33276 2.33184ZM1.20335 4.06483C0.961897 4.68428 0.801072 5.38585 0.755702 6.39346L1.35509 6.42045C1.3979 5.46977 1.54761 4.83373 1.76238 4.28273L1.20335 4.06483ZM0.755698 6.39355C0.711507 7.38155 0.7 7.70047 0.7 10.201H1.3C1.3 7.7039 1.3115 7.39524 1.3551 6.42036L0.755698 6.39355ZM0.7 10.201C0.7 12.7015 0.711121 13.0194 0.755897 14.0076L1.35528 13.9804C1.31111 13.0057 1.3 12.6983 1.3 10.201H0.7ZM0.755906 14.0078C0.802253 15.0155 0.962849 15.7167 1.20343 16.3358L1.76268 16.1185C1.54858 15.5675 1.39902 14.9315 1.35527 13.9802L0.755906 14.0078ZM1.20343 16.3358C1.45258 16.9769 1.78894 17.5262 2.33215 18.0692L2.75633 17.6449C2.27631 17.1651 1.98393 16.6877 1.76268 16.1185L1.20343 16.3358ZM2.33199 18.0691C2.87469 18.6124 3.42404 18.9496 4.06493 19.1986L4.28225 18.6394C3.71359 18.4184 3.23626 18.1254 2.75649 17.6451L2.33199 18.0691ZM4.06491 19.1986C4.6844 19.4394 5.38579 19.6 6.39342 19.6462L6.42087 19.0468C5.46983 19.0032 4.83362 18.8537 4.28227 18.6394L4.06491 19.1986ZM6.3935 19.6462C7.38173 19.6911 7.70044 19.7021 10.2007 19.7021V19.1021C7.70355 19.1021 7.39544 19.0911 6.42078 19.0468L6.3935 19.6462ZM10.2007 19.7021C12.7012 19.7021 13.0192 19.6911 14.0074 19.6462L13.9801 19.0468C13.0055 19.0911 12.6981 19.1021 10.2007 19.1021V19.7021ZM14.0075 19.6462C15.0153 19.6 15.7173 19.4394 16.3368 19.1986L16.1194 18.6394C15.5681 18.8537 14.9313 19.0032 13.9801 19.0468L14.0075 19.6462ZM16.3367 19.1987C16.978 18.9496 17.5265 18.6123 18.0691 18.0691L17.6446 17.6451C17.1648 18.1254 16.6882 18.4185 16.1195 18.6394L16.3367 19.1987ZM18.0689 18.0693C18.6124 17.5263 18.9487 16.9769 19.1983 16.3363L18.6393 16.1184C18.4174 16.6877 18.125 17.165 17.6448 17.6449L18.0689 18.0693ZM19.1987 16.3355C19.4379 15.7166 19.5986 15.0156 19.646 14.0082L19.0466 13.9801C19.0019 14.9311 18.8522 15.5676 18.639 16.1192L19.1987 16.3355ZM19.646 14.0076C19.6904 13.0196 19.7019 12.7016 19.7019 10.201H19.1019C19.1019 12.6982 19.0904 13.0059 19.0466 13.9807L19.646 14.0076ZM19.7019 10.201C19.7019 7.70048 19.6904 7.38172 19.646 6.39368L19.0466 6.42061C19.0904 7.39545 19.1019 7.7039 19.1019 10.201H19.7019ZM19.646 6.39307C19.5986 5.38537 19.4379 4.68449 19.1986 4.06579L18.639 4.28216C18.8522 4.83352 19.0019 5.46986 19.0466 6.42122L19.646 6.39307ZM19.1984 4.06507C18.9487 3.42419 18.6124 2.87486 18.0689 2.33184L17.6448 2.75626C18.125 3.23609 18.4174 3.71344 18.6393 4.28288L19.1984 4.06507ZM18.069 2.33192C17.5258 1.78873 16.978 1.45223 16.336 1.20334L16.1191 1.76277C16.6885 1.98351 17.1643 2.27575 17.6447 2.75618L18.069 2.33192ZM16.336 1.20336C15.7155 0.962661 15.014 0.802056 14.0062 0.755904L13.9787 1.35528C14.9299 1.39883 15.5664 1.54838 16.119 1.76275L16.336 1.20336ZM14.0061 0.7559C13.0179 0.710928 12.7001 0.7 10.1989 0.7V1.3C12.697 1.3 13.0041 1.31092 13.9788 1.35528L14.0061 0.7559ZM10.1989 1.3H10.2018V0.7H10.1989V1.3ZM9.37815 2.9566C9.62284 2.95621 9.89538 2.9566 10.2031 2.9566V2.3566C9.89663 2.3566 9.62247 2.35621 9.37721 2.3566L9.37815 2.9566ZM10.2031 2.9566C12.6586 2.9566 12.9443 2.96542 13.9075 3.00919L13.9347 2.40981C12.9576 2.36541 12.6609 2.3566 10.2031 2.3566V2.9566ZM13.9074 3.00919C14.7714 3.0487 15.2262 3.19164 15.5208 3.30602L15.738 2.74671C15.3839 2.60921 14.865 2.45235 13.9348 2.40982L13.9074 3.00919ZM15.5208 3.30601C15.9117 3.45785 16.1825 3.63434 16.4746 3.92659L16.8989 3.50246C16.5473 3.15064 16.2058 2.92842 15.738 2.74672L15.5208 3.30601ZM16.4746 3.92666C16.7668 4.21886 16.9434 4.49023 17.0957 4.88147L17.6549 4.66381C17.4729 4.19629 17.2508 3.85427 16.8989 3.50239L16.4746 3.92666ZM17.0957 4.88135C17.21 5.17548 17.3531 5.6303 17.3925 6.49423L17.9918 6.46695C17.9495 5.53667 17.7924 5.01771 17.6549 4.66394L17.0957 4.88135ZM17.3925 6.49421C17.4362 7.45727 17.4458 7.74324 17.4458 10.1974H18.0458C18.0458 7.74055 18.0363 7.44379 17.9918 6.46696L17.3925 6.49421ZM17.4458 10.1974C17.4458 12.6516 17.4362 12.9376 17.3925 13.9006L17.9918 13.9279C18.0363 12.9511 18.0458 12.6543 18.0458 10.1974H17.4458ZM17.3925 13.9006C17.353 14.7646 17.21 15.2194 17.0957 15.5135L17.6549 15.7309C17.7925 15.3771 17.9493 14.8581 17.9918 13.928L17.3925 13.9006ZM17.0956 15.5136C16.9439 15.9043 16.7671 16.1747 16.4747 16.467L16.8988 16.8914C17.2505 16.5399 17.4732 16.1989 17.6549 15.7308L17.0956 15.5136ZM16.4746 16.467C16.1822 16.7594 15.9118 16.9359 15.5208 17.0877L15.738 17.647C16.2061 17.4653 16.5472 17.243 16.8989 16.8913L16.4746 16.467ZM15.5203 17.0879C15.2267 17.2025 14.7716 17.3452 13.9074 17.3847L13.9348 17.9841C14.8647 17.9415 15.3842 17.7851 15.7385 17.6468L15.5203 17.0879ZM13.9075 17.3847C12.9444 17.4285 12.6584 17.4381 10.2031 17.4381V18.0381C12.6611 18.0381 12.9579 18.0285 13.9347 17.9841L13.9075 17.3847ZM10.2031 17.4381C7.74757 17.4381 7.46178 17.4285 6.49873 17.3847L6.47148 17.9841C7.44831 18.0285 7.74488 18.0381 10.2031 18.0381V17.4381ZM6.49894 17.3847C5.63488 17.3448 5.17994 17.2019 4.88512 17.0875L4.66805 17.6468C5.02228 17.7843 5.54112 17.9411 6.47127 17.9841L6.49894 17.3847ZM4.8852 17.0875C4.49412 16.9356 4.2228 16.759 3.9306 16.4668L3.50634 16.8911C3.85821 17.243 4.20029 17.4651 4.66797 17.6468L4.8852 17.0875ZM3.9306 16.4668C3.63826 16.1745 3.46173 15.9039 3.3095 15.5126L2.75034 15.7302C2.93242 16.1982 3.1546 16.5394 3.50634 16.8911L3.9306 16.4668ZM3.30954 15.5127C3.19519 15.2186 3.05207 14.7638 3.01275 13.8999L2.41337 13.9271C2.45571 14.8574 2.61278 15.3764 2.75031 15.7301L3.30954 15.5127ZM3.01275 13.8999C2.96898 12.9369 2.96016 12.651 2.96016 10.1951H2.36016C2.36016 12.6533 2.36897 12.9502 2.41337 13.9271L3.01275 13.8999ZM2.96016 10.1951C2.96016 7.73921 2.96898 7.45486 3.01275 6.49191L2.41337 6.46466C2.36897 7.4416 2.36016 7.73691 2.36016 10.1951H2.96016ZM3.01275 6.49199C3.05226 5.62799 3.1952 5.17311 3.30958 4.87855L2.75027 4.66137C2.61276 5.01548 2.45591 5.53438 2.41338 6.46458L3.01275 6.49199ZM3.30957 4.87857C3.46141 4.48764 3.63829 4.21629 3.9306 3.92397L3.50634 3.49971C3.15458 3.85147 2.93198 4.19351 2.75027 4.66135L3.30957 4.87857ZM3.9306 3.92397C4.2228 3.63177 4.49418 3.45516 4.88542 3.30286L4.66776 2.74373C4.20023 2.92573 3.85821 3.14784 3.50634 3.49971L3.9306 3.92397ZM4.88561 3.30279C5.17972 3.18806 5.63463 3.04544 6.49887 3.00574L6.47134 2.40637C5.54137 2.44909 5.02213 2.6055 4.66757 2.74381L4.88561 3.30279ZM6.49864 3.00575C7.34175 2.96767 7.66607 2.95621 9.37802 2.9543L9.37734 2.3543C7.65961 2.35622 7.32605 2.36776 6.47157 2.40636L6.49864 3.00575ZM9.07768 2.6543V2.6566H9.67768V2.6543H9.07768ZM15.1158 3.88593C14.3408 3.88593 13.7117 4.51406 13.7117 5.28967H14.3117C14.3117 4.84577 14.6718 4.48593 15.1158 4.48593V3.88593ZM13.7117 5.28967C13.7117 6.06493 14.3406 6.6938 15.1158 6.6938V6.0938C14.672 6.0938 14.3117 5.73355 14.3117 5.28967H13.7117ZM15.1158 6.6938C15.8911 6.6938 16.52 6.06493 16.52 5.28967H15.92C15.92 5.73355 15.5597 6.0938 15.1158 6.0938V6.6938ZM16.52 5.28967C16.52 4.51442 15.8911 3.88555 15.1158 3.88555V4.48555C15.5597 4.48555 15.92 4.84579 15.92 5.28967H16.52ZM14.8158 4.18555V4.18593H15.4158V4.18555H14.8158ZM10.2017 5.17461C7.42654 5.17461 5.17656 7.42459 5.17656 10.1997H5.77656C5.77656 7.75596 7.75791 5.77461 10.2017 5.77461V5.17461ZM5.17656 10.1997C5.17656 12.9749 7.42662 15.2239 10.2017 15.2239V14.6239C7.75783 14.6239 5.77656 12.6434 5.77656 10.1997H5.17656ZM10.2017 15.2239C12.9768 15.2239 15.226 12.9749 15.226 10.1997H14.626C14.626 12.6435 12.6455 14.6239 10.2017 14.6239V15.2239ZM15.226 10.1997C15.226 7.42463 12.9767 5.17461 10.2015 5.17461V5.77461C12.6452 5.77461 14.626 7.75591 14.626 10.1997H15.226ZM10.2015 5.77461H10.2017V5.17461H10.2015V5.77461ZM10.2037 7.43281C11.7318 7.43281 12.9707 8.67157 12.9707 10.1998H13.5707C13.5707 8.34018 12.0632 6.83281 10.2037 6.83281V7.43281ZM12.9707 10.1998C12.9707 11.7279 11.7318 12.9668 10.2037 12.9668V13.5668C12.0632 13.5668 13.5707 12.0593 13.5707 10.1998H12.9707ZM10.2037 12.9668C8.67548 12.9668 7.43672 11.7279 7.43672 10.1998H6.83672C6.83672 12.0593 8.34408 13.5668 10.2037 13.5668V12.9668ZM7.43672 10.1998C7.43672 8.67156 8.67547 7.43281 10.2037 7.43281V6.83281C8.3441 6.83281 6.83672 8.34019 6.83672 10.1998H7.43672Z" fill="#101010"/>
</svg>
