<svg width="17" height="14" viewBox="0 0 17 14" fill="none" xmlns="http://www.w3.org/2000/svg">
<path fill-rule="evenodd" clip-rule="evenodd" d="M8.10919 3.67139L8.1454 4.26834L7.54203 4.19525C5.34579 3.91504 3.4271 2.9648 1.79802 1.36887L1.00158 0.576998L0.796439 1.16177C0.362018 2.46531 0.639564 3.84195 1.54461 4.76783C2.0273 5.2795 1.91869 5.3526 1.08605 5.04803C0.796439 4.95057 0.543026 4.87747 0.518892 4.91402C0.434421 4.9993 0.724035 6.10792 0.953313 6.5465C1.26706 7.15563 1.90663 7.75258 2.60653 8.10588L3.19782 8.38608L2.49792 8.39826C1.82216 8.39826 1.79802 8.41044 1.87042 8.66628C2.11177 9.45815 3.06508 10.2988 4.127 10.6642L4.87517 10.9201L4.22354 11.3099C3.25816 11.8703 2.12384 12.1871 0.989515 12.2114C0.446488 12.2236 0 12.2723 0 12.3089C0 12.4307 1.4722 13.1129 2.32898 13.381C4.8993 14.1728 7.95232 13.8317 10.2451 12.4794C11.8742 11.517 13.5033 9.60434 14.2635 7.75258C14.6738 6.76578 15.0841 4.96275 15.0841 4.09778C15.0841 3.53738 15.1203 3.46429 15.796 2.79424C16.1943 2.4044 16.5683 1.978 16.6407 1.85618C16.7614 1.62471 16.7493 1.62471 16.1339 1.83181C15.1082 2.19729 14.9634 2.14856 15.4702 1.60034C15.8443 1.2105 16.2908 0.503902 16.2908 0.296797C16.2908 0.260249 16.1098 0.321162 15.9046 0.430806C15.6874 0.552633 15.2047 0.735372 14.8427 0.845016L14.1911 1.05212L13.5998 0.650094C13.274 0.430806 12.8154 0.187153 12.5741 0.114057C11.9586 -0.0565001 11.0174 -0.0321348 10.4623 0.162788C8.9539 0.711007 8.00059 2.12419 8.10919 3.67139Z" fill="#2E2E2E"/>
</svg>
