<svg width="29" height="29" viewBox="0 0 29 29" fill="none" xmlns="http://www.w3.org/2000/svg">
<path fillRule="evenodd" clipRule="evenodd" d="M7.25 14.4999C7.25 14.2596 7.34548 14.0291 7.51543 13.8591C7.68539 13.6892 7.9159 13.5937 8.15625 13.5937H18.6561L14.7646 9.70405C14.5945 9.53388 14.4989 9.30308 14.4989 9.06242C14.4989 8.82177 14.5945 8.59097 14.7646 8.4208C14.9348 8.25063 15.1656 8.15503 15.4062 8.15503C15.6469 8.15503 15.8777 8.25063 16.0479 8.4208L21.4854 13.8583C21.5698 13.9425 21.6367 14.0425 21.6824 14.1526C21.7281 14.2627 21.7516 14.3807 21.7516 14.4999C21.7516 14.6191 21.7281 14.7372 21.6824 14.8473C21.6367 14.9574 21.5698 15.0574 21.4854 15.1415L16.0479 20.5791C15.8777 20.7492 15.6469 20.8448 15.4062 20.8448C15.1656 20.8448 14.9348 20.7492 14.7646 20.5791C14.5945 20.4089 14.4989 20.1781 14.4989 19.9374C14.4989 19.6968 14.5945 19.466 14.7646 19.2958L18.6561 15.4062H8.15625C7.9159 15.4062 7.68539 15.3107 7.51543 15.1407C7.34548 14.9708 7.25 14.7403 7.25 14.4999Z" fill="black"/>
</svg>
