<svg width="29" height="31" viewBox="0 0 29 31" fill="none" xmlns="http://www.w3.org/2000/svg">
<path fill-rule="evenodd" clip-rule="evenodd" d="M7.25 15.4817C7.25 15.233 7.34548 14.9946 7.51543 14.8187C7.68539 14.6429 7.9159 14.5442 8.15625 14.5442H18.6561L14.7646 10.5204C14.5945 10.3444 14.4989 10.1056 14.4989 9.85665C14.4989 9.6077 14.5945 9.36894 14.7646 9.1929C14.9348 9.01687 15.1656 8.91797 15.4062 8.91797C15.6469 8.91797 15.8777 9.01687 16.0479 9.1929L21.4854 14.8179C21.5698 14.905 21.6367 15.0084 21.6824 15.1223C21.7281 15.2362 21.7516 15.3583 21.7516 15.4817C21.7516 15.605 21.7281 15.7271 21.6824 15.841C21.6367 15.9549 21.5698 16.0583 21.4854 16.1454L16.0479 21.7704C15.8777 21.9464 15.6469 22.0453 15.4062 22.0453C15.1656 22.0453 14.9348 21.9464 14.7646 21.7704C14.5945 21.5944 14.4989 21.3556 14.4989 21.1067C14.4989 20.8577 14.5945 20.6189 14.7646 20.4429L18.6561 16.4192H8.15625C7.9159 16.4192 7.68539 16.3204 7.51543 16.1446C7.34548 15.9688 7.25 15.7303 7.25 15.4817Z" fill="#0050D5"/>
</svg>
