<svg width="40" height="40" viewBox="0 0 40 40" fill="none" xmlns="http://www.w3.org/2000/svg">
<circle cx="20" cy="20" r="20" fill="#D9D9D9"/>
<path d="M29.7407 28.6249C29.6765 28.7398 29.5826 28.8353 29.4688 28.9013C29.3549 28.9673 29.2254 29.0014 29.0938 28.9999H10.9063C10.7747 29.0014 10.6451 28.9673 10.5313 28.9013C10.4174 28.8353 10.3235 28.7398 10.2594 28.6249C10.1907 28.5119 10.1544 28.3822 10.1544 28.2499C10.1544 28.1177 10.1907 27.9879 10.2594 27.8749C11.6588 25.4642 13.8989 23.6548 16.55 22.7937C15.2793 22.038 14.2917 20.886 13.7392 19.5147C13.1866 18.1434 13.0996 16.6286 13.4914 15.203C13.8833 13.7774 14.7323 12.5199 15.9082 11.6236C17.084 10.7274 18.5216 10.2419 20 10.2419C21.4785 10.2419 22.9161 10.7274 24.0919 11.6236C25.2677 12.5199 26.1168 13.7774 26.5086 15.203C26.9005 16.6286 26.8134 18.1434 26.2609 19.5147C25.7083 20.886 24.7208 22.038 23.45 22.7937C26.1012 23.6548 28.3412 25.4642 29.7407 27.8749C29.8094 27.9879 29.8457 28.1177 29.8457 28.2499C29.8457 28.3822 29.8094 28.5119 29.7407 28.6249Z" fill="#7F7D7D"/>
</svg>
