<svg width="16" height="16" viewBox="0 0 16 16" fill="none" xmlns="http://www.w3.org/2000/svg">
<path d="M15.875 15.875H14.75V13.0625C14.7491 12.3169 14.4525 11.602 13.9253 11.0747C13.398 10.5475 12.6831 10.2509 11.9375 10.25V9.125C12.9814 9.12619 13.9823 9.54142 14.7204 10.2796C15.4586 11.0177 15.8738 12.0186 15.875 13.0625V15.875ZM11.375 15.875H10.25V13.0625C10.2491 12.3169 9.9525 11.602 9.42525 11.0747C8.898 10.5475 8.18315 10.2509 7.4375 10.25H4.0625C3.31685 10.2509 2.602 10.5475 2.07475 11.0747C1.5475 11.602 1.25089 12.3169 1.25 13.0625V15.875H0.125V13.0625C0.126191 12.0186 0.541416 11.0177 1.27958 10.2796C2.01775 9.54142 3.01858 9.12619 4.0625 9.125H7.4375C8.48142 9.12619 9.48225 9.54142 10.2204 10.2796C10.9586 11.0177 11.3738 12.0186 11.375 13.0625V15.875ZM10.25 0.125V1.25C10.9959 1.25 11.7113 1.54632 12.2387 2.07376C12.7662 2.60121 13.0625 3.31658 13.0625 4.0625C13.0625 4.80842 12.7662 5.52379 12.2387 6.05124C11.7113 6.57868 10.9959 6.875 10.25 6.875V8C11.2943 8 12.2958 7.58516 13.0342 6.84673C13.7727 6.10831 14.1875 5.10679 14.1875 4.0625C14.1875 3.01821 13.7727 2.01669 13.0342 1.27827C12.2958 0.539843 11.2943 0.125 10.25 0.125ZM5.75 1.25C6.30626 1.25 6.85003 1.41495 7.31254 1.72399C7.77505 2.03303 8.13554 2.47229 8.34841 2.9862C8.56128 3.50012 8.61698 4.06562 8.50846 4.61119C8.39994 5.15676 8.13207 5.6579 7.73874 6.05124C7.3454 6.44457 6.84426 6.71244 6.29869 6.82096C5.75312 6.92948 5.18762 6.87378 4.6737 6.66091C4.15979 6.44804 3.72053 6.08755 3.41149 5.62504C3.10245 5.16253 2.9375 4.61876 2.9375 4.0625C2.9375 3.31658 3.23382 2.60121 3.76126 2.07376C4.28871 1.54632 5.00408 1.25 5.75 1.25ZM5.75 0.125C4.97124 0.125 4.20996 0.35593 3.56244 0.788588C2.91492 1.22125 2.41024 1.8362 2.11222 2.55568C1.8142 3.27517 1.73623 4.06687 1.88816 4.83067C2.04009 5.59447 2.4151 6.29606 2.96577 6.84673C3.51644 7.3974 4.21803 7.77241 4.98183 7.92434C5.74563 8.07627 6.53733 7.9983 7.25682 7.70028C7.9763 7.40226 8.59125 6.89758 9.02391 6.25006C9.45657 5.60254 9.6875 4.84126 9.6875 4.0625C9.6875 3.01821 9.27266 2.01669 8.53423 1.27827C7.79581 0.539843 6.79429 0.125 5.75 0.125Z" fill="#0C2139"/>
</svg>
