<svg width="12" height="8" viewBox="0 0 12 8" fill="none" xmlns="http://www.w3.org/2000/svg">
<path d="M11.651 0.626815C11.4885 0.461172 11.2669 0.366837 11.0349 0.364553C10.8029 0.362269 10.5795 0.452224 10.4138 0.614636L6.0402 4.903L1.75184 0.529371C1.58839 0.368368 1.36824 0.278002 1.13882 0.277737C0.909389 0.277473 0.689035 0.36733 0.525215 0.527955C0.361397 0.688581 0.26722 0.907123 0.262968 1.13651C0.258716 1.3659 0.344731 1.58778 0.502485 1.75437L5.40334 6.75267C5.56581 6.91831 5.7874 7.01265 6.01941 7.01493C6.25141 7.01722 6.47483 6.92726 6.64052 6.76485L11.6388 1.86399C11.8045 1.70153 11.8988 1.47993 11.9011 1.24792C11.9034 1.01592 11.8134 0.792506 11.651 0.626815Z" fill="black"/>
</svg>
