<svg width="37" height="39" viewBox="0 0 37 39" fill="none" xmlns="http://www.w3.org/2000/svg">
<path d="M32.15 11.7V9.75H28.25V3.9H4.85001V31.2H14.6V39H20.9375H20.45C19.4157 39 18.4237 38.5891 17.6923 37.8577C16.9609 37.1263 16.55 36.1343 16.55 35.1V15.6C16.55 14.5657 16.9609 13.5737 17.6923 12.8423C18.4237 12.1109 19.4157 11.7 20.45 11.7H32.15ZM20.9375 39H4.85001C3.81567 39 2.82369 38.5891 2.0923 37.8577C1.3609 37.1263 0.950012 36.1343 0.950012 35.1V3.9C0.950012 1.755 2.70501 0 4.85001 0H28.25C29.2844 0 30.2763 0.410892 31.0077 1.14228C31.7391 1.87368 32.15 2.86566 32.15 3.9V11.7C33.1844 11.7 34.1763 12.1109 34.9077 12.8423C35.6391 13.5737 36.05 14.5657 36.05 15.6V35.1C36.05 36.1343 35.6391 37.1263 34.9077 37.8577C34.1763 38.5891 33.1844 39 32.15 39H20.9375ZM20.45 15.6V31.2H32.15V15.6H20.45ZM26.3 37.05C26.8172 37.05 27.3132 36.8446 27.6789 36.4789C28.0446 36.1132 28.25 35.6172 28.25 35.1C28.25 34.5828 28.0446 34.0868 27.6789 33.7211C27.3132 33.3554 26.8172 33.15 26.3 33.15C25.7828 33.15 25.2869 33.3554 24.9212 33.7211C24.5555 34.0868 24.35 34.5828 24.35 35.1C24.35 35.6172 24.5555 36.1132 24.9212 36.4789C25.2869 36.8446 25.7828 37.05 26.3 37.05Z" fill="#7F7D7D"/>
</svg>
