<svg width="24" height="24" viewBox="0 0 24 24" fill="none" xmlns="http://www.w3.org/2000/svg">
<path d="M9.60051 12.9867C9.20999 13.3772 9.20999 14.0104 9.60051 14.4009C9.99103 14.7914 10.6242 14.7914 11.0147 14.4009L9.60051 12.9867ZM15.8609 9.55476C16.2514 9.16424 16.2514 8.53107 15.8609 8.14055C15.4704 7.75003 14.8372 7.75003 14.4467 8.14055L15.8609 9.55476ZM11.0147 14.4009L15.8609 9.55476L14.4467 8.14055L9.60051 12.9867L11.0147 14.4009Z" fill="#5258EC"/>
<path d="M13.7302 20.7656L12.8357 21.2128L13.7302 20.7656ZM15.5804 20.6125L14.6246 20.3184L15.5804 20.6125ZM9.93283 13.6181L9.48561 14.5126L9.93283 13.6181ZM10.38 14.0654L11.2745 13.6181L10.38 14.0654ZM3.38572 8.41782L3.67981 9.3736L3.38572 8.41782ZM3.2326 10.268L2.78538 11.1625H2.78538L3.2326 10.268ZM19.1948 3.55348L19.4889 4.50926L19.1948 3.55348ZM20.4447 4.80334L21.4005 5.09743L20.4447 4.80334ZM18.9008 2.5977L3.09164 7.46204L3.67981 9.3736L19.4889 4.50926L18.9008 2.5977ZM2.78538 11.1625L9.48561 14.5126L10.38 12.7237L3.67981 9.3736L2.78538 11.1625ZM9.48561 14.5126L12.8357 21.2128L14.6246 20.3184L11.2745 13.6181L9.48561 14.5126ZM16.5361 20.9065L21.4005 5.09743L19.4889 4.50926L14.6246 20.3184L16.5361 20.9065ZM12.8357 21.2128C13.6426 22.8266 16.0055 22.6311 16.5361 20.9065L14.6246 20.3184L12.8357 21.2128ZM9.48561 14.5126V14.5126L11.2745 13.6181C11.0809 13.2311 10.7671 12.9172 10.38 12.7237L9.48561 14.5126ZM3.09164 7.46204C1.3671 7.99267 1.17155 10.3555 2.78538 11.1625L3.67981 9.3736L3.67981 9.3736L3.09164 7.46204ZM19.4889 4.50926L19.4889 4.50926L21.4005 5.09743C21.8727 3.56287 20.4353 2.12553 18.9008 2.5977L19.4889 4.50926Z" fill="#5258EC"/>
</svg>
