<svg width="36" height="30" viewBox="0 0 36 30" fill="none" xmlns="http://www.w3.org/2000/svg">
<path d="M12 13.9688H3.165C3.44378 12.0736 4.10668 10.2586 5.11138 8.63974C6.11608 7.02088 7.44049 5.63372 9 4.56687L11.685 2.72937L10.035 0.1875L7.35 2.025C5.08992 3.56249 3.23656 5.64573 1.9544 8.08986C0.672234 10.534 0.00091063 13.2634 0 16.0359V26.2188C0 27.031 0.31607 27.8099 0.87868 28.3843C1.44129 28.9586 2.20435 29.2812 3 29.2812H12C12.7956 29.2812 13.5587 28.9586 14.1213 28.3843C14.6839 27.8099 15 27.031 15 26.2188V17.0312C15 16.219 14.6839 15.4401 14.1213 14.8657C13.5587 14.2914 12.7956 13.9688 12 13.9688ZM33 13.9688H24.165C24.4438 12.0736 25.1067 10.2586 26.1114 8.63974C27.1161 7.02088 28.4405 5.63372 30 4.56687L32.685 2.72937L31.05 0.1875L28.35 2.025C26.0899 3.56249 24.2366 5.64573 22.9544 8.08986C21.6722 10.534 21.0009 13.2634 21 16.0359V26.2188C21 27.031 21.3161 27.8099 21.8787 28.3843C22.4413 28.9586 23.2044 29.2812 24 29.2812H33C33.7957 29.2812 34.5587 28.9586 35.1213 28.3843C35.6839 27.8099 36 27.031 36 26.2188V17.0312C36 16.219 35.6839 15.4401 35.1213 14.8657C34.5587 14.2914 33.7957 13.9688 33 13.9688Z" fill="#DADADA"/>
</svg>
