<svg width="38" height="32" viewBox="0 0 38 32" fill="none" xmlns="http://www.w3.org/2000/svg">
<path d="M16.375 30.4375H21.625M16.375 30.4375L17.0312 25.1875H20.9688L21.625 30.4375M16.375 30.4375H12.4375M21.625 30.4375H25.5625M4.5625 1.5625H33.4375C34.1337 1.5625 34.8014 1.83906 35.2937 2.33134C35.7859 2.82363 36.0625 3.49131 36.0625 4.1875V22.5625C36.0625 23.2587 35.7859 23.9264 35.2937 24.4187C34.8014 24.9109 34.1337 25.1875 33.4375 25.1875H4.5625C3.86631 25.1875 3.19863 24.9109 2.70634 24.4187C2.21406 23.9264 1.9375 23.2587 1.9375 22.5625V4.1875C1.9375 3.49131 2.21406 2.82363 2.70634 2.33134C3.19863 1.83906 3.86631 1.5625 4.5625 1.5625Z" stroke="#0050D5" strokeWidth="2" strokeLinecap="round" strokeLinejoin="round"/>
</svg>
