<svg width="19" height="27" viewBox="0 0 19 27" fill="none" xmlns="http://www.w3.org/2000/svg">
<path d="M15.6085 0.667969H3.38931C2.57895 0.716646 1.82052 1.0831 1.27878 1.68772C0.737033 2.29235 0.455732 3.08631 0.495981 3.89714V23.1042C0.455732 23.915 0.737033 24.709 1.27878 25.3136C1.82052 25.9183 2.57895 26.2847 3.38931 26.3334H15.6085C16.4188 26.2847 17.1773 25.9183 17.719 25.3136C18.2608 24.709 18.5421 23.915 18.5018 23.1042V3.89714C18.5421 3.08631 18.2608 2.29235 17.719 1.68772C17.1773 1.0831 16.4188 0.716646 15.6085 0.667969ZM17.2101 23.1042C17.2496 23.5725 17.104 24.0375 16.8046 24.3997C16.5052 24.7619 16.0758 24.9924 15.6085 25.0417H3.38931C2.922 24.9924 2.49263 24.7619 2.19322 24.3997C1.89382 24.0375 1.74823 23.5725 1.78765 23.1042V3.89714C1.74823 3.42888 1.89382 2.96382 2.19322 2.60164C2.49263 2.23946 2.922 2.00899 3.38931 1.95964H5.36556V2.61839C5.36556 2.96096 5.50165 3.2895 5.74389 3.53173C5.98612 3.77397 6.31466 3.91005 6.65723 3.91005H12.3406C12.6831 3.91005 13.0117 3.77397 13.2539 3.53173C13.4961 3.2895 13.6322 2.96096 13.6322 2.61839V1.95964H15.6085C16.0758 2.00899 16.5052 2.23946 16.8046 2.60164C17.104 2.96382 17.2496 3.42888 17.2101 3.89714V23.1042Z" fill="#565656"/>
</svg>
