<svg width="18" height="13" viewBox="0 0 18 13" fill="none" xmlns="http://www.w3.org/2000/svg">
<path d="M15.1983 0.941348C16.3322 2.51754 17 4.45146 17 6.54135C17 8.63124 16.3322 10.5652 15.1983 12.1413M11.9962 3.34135C12.6289 4.24841 13 5.35155 13 6.54135C13 7.73115 12.6289 8.83428 11.9962 9.74135M7.10745 1.2339L4.5749 3.76644C4.43654 3.90481 4.36736 3.97399 4.28663 4.02346C4.21505 4.06732 4.13701 4.09965 4.05539 4.11924C3.96332 4.14135 3.86548 4.14135 3.66981 4.14135H2.28C1.83196 4.14135 1.60794 4.14135 1.43681 4.22854C1.28628 4.30524 1.16389 4.42763 1.08719 4.57816C1 4.74928 1 4.97331 1 5.42135V7.66135C1 8.10939 1 8.33341 1.08719 8.50454C1.16389 8.65507 1.28628 8.77745 1.43681 8.85415C1.60794 8.94135 1.83196 8.94135 2.28 8.94135H3.66981C3.86548 8.94135 3.96332 8.94135 4.05539 8.96345C4.13701 8.98305 4.21505 9.01537 4.28663 9.05924C4.36736 9.10871 4.43654 9.17789 4.5749 9.31625L7.10745 11.8488C7.45015 12.1915 7.6215 12.3629 7.76862 12.3744C7.89626 12.3845 8.02101 12.3328 8.10416 12.2354C8.2 12.1232 8.2 11.8809 8.2 11.3963V1.68644C8.2 1.20179 8.2 0.959466 8.10416 0.847254C8.02101 0.74989 7.89626 0.69822 7.76862 0.708266C7.6215 0.719845 7.45015 0.891195 7.10745 1.2339Z" stroke="white" strokeLinecap="round" strokeLinejoin="round"/>
</svg>
