<svg width="41" height="39" viewBox="0 0 41 39" fill="none" xmlns="http://www.w3.org/2000/svg">
<path d="M20.3775 28.243C20.0479 28.243 19.7389 28.192 19.4505 28.0901C19.1621 27.9897 18.8943 27.8181 18.6471 27.5753L9.74794 18.8351C9.29474 18.39 9.06814 17.8235 9.06814 17.1356C9.06814 16.4477 9.29474 15.8812 9.74794 15.4361C10.2011 14.991 10.7878 14.7579 11.508 14.7369C12.2298 14.7174 12.8173 14.9303 13.2705 15.3754L17.9055 19.9276V2.56848C17.9055 1.88059 18.1428 1.30357 18.6175 0.837419C19.0904 0.37289 19.6771 0.140625 20.3775 0.140625C21.0779 0.140625 21.6654 0.37289 22.1401 0.837419C22.613 1.30357 22.8495 1.88059 22.8495 2.56848V19.9276L27.4845 15.3754C27.9377 14.9303 28.5252 14.7174 29.247 14.7369C29.9672 14.7579 30.5539 14.991 31.0071 15.4361C31.4603 15.8812 31.6869 16.4477 31.6869 17.1356C31.6869 17.8235 31.4603 18.39 31.0071 18.8351L22.1079 27.5753C21.8607 27.8181 21.5929 27.9897 21.3045 28.0901C21.0161 28.192 20.7071 28.243 20.3775 28.243ZM5.54555 38.9863C4.18595 38.9863 3.02247 38.5112 2.05509 37.5611C1.08607 36.6094 0.601562 35.4659 0.601562 34.1305V29.2748C0.601562 28.587 0.83805 28.0099 1.31103 27.5438C1.78565 27.0793 2.37316 26.847 3.07356 26.847C3.77396 26.847 4.36147 27.0793 4.83609 27.5438C5.30906 28.0099 5.54555 28.587 5.54555 29.2748V34.1305H35.2095V29.2748C35.2095 28.587 35.4468 28.0099 35.9214 27.5438C36.3944 27.0793 36.9811 26.847 37.6815 26.847C38.3819 26.847 38.9686 27.0793 39.4415 27.5438C39.9162 28.0099 40.1535 28.587 40.1535 29.2748V34.1305C40.1535 35.4659 39.6698 36.6094 38.7024 37.5611C37.7334 38.5112 36.5691 38.9863 35.2095 38.9863H5.54555Z" fill="#0050D5"/>
</svg>
