<svg width="16" height="16" viewBox="0 0 16 16" fill="none" xmlns="http://www.w3.org/2000/svg">
<path d="M0 2.13544C0 1.62063 0.180185 1.19592 0.540541 0.861305C0.900896 0.52668 1.36937 0.359375 1.94595 0.359375C2.51223 0.359375 2.97039 0.524101 3.32046 0.853583C3.68082 1.19335 3.861 1.63607 3.861 2.18177C3.861 2.67598 3.68598 3.08781 3.33591 3.41729C2.97555 3.75706 2.50193 3.92694 1.91506 3.92694H1.89961C1.33333 3.92694 0.875166 3.75706 0.525097 3.41729C0.175027 3.07752 0 2.65023 0 2.13544ZM0.200772 15.6489V5.33235H3.62934V15.6489H0.200772ZM5.52896 15.6489H8.95753V9.88833C8.95753 9.52796 8.99872 9.24997 9.08108 9.05436C9.22522 8.70429 9.44401 8.40827 9.73745 8.16632C10.0309 7.92436 10.399 7.80339 10.8417 7.80339C11.9949 7.80339 12.5714 8.58073 12.5714 10.1354V15.6489H16V9.73389C16 8.21008 15.6396 7.05436 14.9189 6.26671C14.1982 5.47907 13.2458 5.08524 12.0618 5.08524C10.7336 5.08524 9.69884 5.65667 8.95753 6.79953V6.83042H8.94209L8.95753 6.79953V5.33235H5.52896C5.54954 5.66182 5.55985 6.68626 5.55985 8.40571C5.55985 10.1251 5.54954 12.5395 5.52896 15.6489Z" fill="#0A66C2"/>
</svg>
