<svg width="18" height="18" viewBox="0 0 18 18" fill="none" xmlns="http://www.w3.org/2000/svg">
<path d="M17.9466 5.28903C17.9034 4.33066 17.7486 3.67494 17.5289 3.10208C17.2985 2.51121 16.9924 2.00681 16.4919 1.50961C15.9914 1.01241 15.4909 0.698959 14.9004 0.471978C14.3279 0.248599 13.6725 0.0972778 12.7148 0.0540432C11.7534 0.0108086 11.4473 0 9.00601 0C6.56112 0 6.25506 0.0108086 5.29727 0.0540432C4.33948 0.0972778 3.68415 0.252202 3.11163 0.471978C2.51751 0.702562 2.01341 1.00881 1.51651 1.50961C1.01961 2.01041 0.706352 2.51121 0.479507 3.10208C0.259863 3.67494 0.105032 4.33066 0.0618233 5.28903C0.0186147 6.251 0.0078125 6.55725 0.0078125 9C0.0078125 11.4464 0.0186147 11.7526 0.0618233 12.711C0.105032 13.6693 0.259863 14.3251 0.479507 14.8979C0.709953 15.4888 1.01601 15.9932 1.51651 16.4904C2.01341 16.9912 2.51751 17.301 3.10803 17.528C3.68055 17.7514 4.33588 17.9027 5.29367 17.946C6.25506 17.9892 6.56112 18 9.00241 18C11.4473 18 11.7534 17.9892 12.7112 17.946C13.6689 17.9027 14.3243 17.7478 14.8968 17.528C15.4873 17.2974 15.9914 16.9912 16.4883 16.4904C16.9852 15.9896 17.2985 15.4888 17.5253 14.8979C17.7486 14.3251 17.8998 13.6693 17.943 12.711C17.9862 11.749 17.997 11.4428 17.997 9C17.997 6.55725 17.9898 6.2474 17.9466 5.28903ZM16.3299 12.6389C16.2903 13.518 16.1426 13.9972 16.0202 14.3106C15.8582 14.7286 15.6601 15.0312 15.3433 15.3483C15.0264 15.6653 14.7276 15.8563 14.3063 16.0256C13.9894 16.1481 13.5105 16.2958 12.6355 16.3355C11.6885 16.3787 11.4041 16.3895 8.99881 16.3895C6.59353 16.3895 6.30907 16.3787 5.36208 16.3355C4.48351 16.2958 4.00461 16.1481 3.69135 16.0256C3.27367 15.8635 2.97121 15.6653 2.65434 15.3483C2.33748 15.0312 2.14664 14.7322 1.97741 14.3106C1.85498 13.9936 1.70735 13.5144 1.66774 12.6389C1.62454 11.6914 1.61373 11.4067 1.61373 9C1.61373 6.59328 1.62454 6.30865 1.66774 5.36109C1.70735 4.48199 1.85498 4.0028 1.97741 3.68935C2.13944 3.27142 2.33748 2.96878 2.65434 2.65172C2.97121 2.33467 3.27006 2.14372 3.69135 1.97438C4.00821 1.85188 4.48711 1.70416 5.36208 1.66453C6.30907 1.6213 6.59353 1.61049 8.99881 1.61049C11.4041 1.61049 11.6885 1.6213 12.6355 1.66453C13.5141 1.70416 13.993 1.85188 14.3063 1.97438C14.724 2.13651 15.0264 2.33467 15.3433 2.65172C15.6601 2.96878 15.851 3.26781 16.0202 3.68935C16.1426 4.00641 16.2903 4.48559 16.3299 5.36109C16.3731 6.30865 16.3839 6.59328 16.3839 9C16.3839 11.4067 16.3695 11.6914 16.3299 12.6389Z" fill="#002856"/>
<path d="M8.99832 4.37305C6.44181 4.37305 4.375 6.4447 4.375 8.99915C4.375 11.5572 6.44541 13.6252 8.99832 13.6252C11.5512 13.6252 13.6216 11.55 13.6216 8.99915C13.6216 6.4411 11.5548 4.37305 8.99832 4.37305ZM8.99832 12.0003C7.34199 12.0003 5.99892 10.6565 5.99892 8.99915C5.99892 7.34182 7.34199 5.99795 8.99832 5.99795C10.6547 5.99795 11.9977 7.34182 11.9977 8.99915C11.9977 10.6565 10.6547 12.0003 8.99832 12.0003Z" fill="#002856"/>
<path d="M13.799 5.27501C14.3956 5.27501 14.8792 4.79109 14.8792 4.19415C14.8792 3.5972 14.3956 3.11328 13.799 3.11328C13.2024 3.11328 12.7188 3.5972 12.7188 4.19415C12.7188 4.79109 13.2024 5.27501 13.799 5.27501Z" fill="#002856"/>
<path d="M0 9C0 11.4464 0.0108022 11.7526 0.0540108 12.711C0.0972195 13.6693 0.25205 14.3251 0.471694 14.8979C0.70214 15.4888 1.0082 15.9932 1.5087 16.4904C2.0056 16.9876 2.5097 17.301 3.10022 17.528C3.67273 17.7514 4.32807 17.9027 5.28586 17.946C6.24725 17.9892 6.55331 18 8.9946 18C11.4395 18 11.7455 17.9892 12.7033 17.946C13.6611 17.9027 14.3165 17.7478 14.889 17.528C15.4795 17.2974 15.9836 16.9912 16.4805 16.4904C16.9774 15.9932 17.2907 15.4888 17.5175 14.8979C17.7407 14.3251 17.892 13.6693 17.9352 12.711C17.9784 11.749 17.9892 11.4428 17.9892 9C17.9892 6.55364 17.9784 6.2474 17.9352 5.28903C17.892 4.33066 17.7371 3.67494 17.5175 3.10208C17.2871 2.51121 16.981 2.00681 16.4805 1.50961C15.9872 1.00881 15.4831 0.698959 14.8926 0.471978C14.3201 0.248599 13.6647 0.0972778 12.7069 0.0540432C11.7455 0.0108086 11.4395 0 8.9982 0C6.55331 0 6.24725 0.0108086 5.28946 0.0540432C4.33167 0.0972778 3.67634 0.252202 3.10382 0.471978C2.5133 0.702562 2.0092 1.00881 1.5123 1.50961C1.0154 2.01041 0.70214 2.51121 0.475295 3.10208C0.25205 3.67494 0.0972195 4.33066 0.0540108 5.28903C0.0108022 6.2474 0 6.55364 0 9ZM1.62392 9C1.62392 6.59688 1.63473 6.30865 1.67794 5.36109C1.71754 4.48199 1.86517 4.0028 1.9876 3.68935C2.14963 3.27142 2.34767 2.96878 2.66453 2.65172C2.9814 2.33467 3.28026 2.14372 3.70154 1.97438C4.0184 1.85188 4.4973 1.70416 5.37227 1.66453C6.31926 1.6213 6.60372 1.61049 9.009 1.61049C11.4143 1.61049 11.6987 1.6213 12.6457 1.66453C13.5243 1.70416 14.0032 1.85188 14.3165 1.97438C14.7341 2.13651 15.0366 2.33467 15.3535 2.65172C15.6703 2.96878 15.8612 3.26781 16.0304 3.68935C16.1528 4.00641 16.3005 4.48559 16.3401 5.36109C16.3833 6.30865 16.3941 6.59328 16.3941 9C16.3941 11.4067 16.3833 11.6914 16.3401 12.6389C16.3005 13.518 16.1528 13.9972 16.0304 14.3106C15.8684 14.7286 15.6703 15.0312 15.3535 15.3483C15.0366 15.6653 14.7377 15.8563 14.3165 16.0256C13.9996 16.1481 13.5207 16.2958 12.6457 16.3355C11.6987 16.3787 11.4143 16.3895 9.009 16.3895C6.60372 16.3895 6.31926 16.3787 5.37227 16.3355C4.4937 16.2958 4.0148 16.1481 3.70154 16.0256C3.28386 15.8635 2.9814 15.6653 2.66453 15.3483C2.34767 15.0312 2.15683 14.7322 1.9876 14.3106C1.86517 13.9936 1.71754 13.5144 1.67794 12.6389C1.63113 11.6914 1.62392 11.4031 1.62392 9Z" fill="#002856"/>
</svg>
