<svg width="17" height="15" viewBox="0 0 17 15" fill="none" xmlns="http://www.w3.org/2000/svg">
<path d="M14.9123 4.08559C14.9188 4.23519 14.9188 4.37799 14.9188 4.52759C14.9254 9.0632 11.5931 14.2992 5.49909 14.2992C3.70173 14.2992 1.93717 13.762 0.421875 12.7556C0.684263 12.7896 0.946652 12.8032 1.20904 12.8032C2.69809 12.8032 4.14779 12.2864 5.32198 11.3276C3.90508 11.3004 2.65874 10.3416 2.22579 8.9408C2.72433 9.0428 3.23599 9.0224 3.72141 8.8796C2.17988 8.5668 1.07129 7.1592 1.06473 5.52039C1.06473 5.50679 1.06473 5.49319 1.06473 5.47959C1.52391 5.74479 2.04212 5.89439 2.5669 5.90799C1.1172 4.90159 0.664584 2.89558 1.54358 1.32478C3.22943 3.47358 5.709 4.77239 8.37224 4.91519C8.10329 3.72518 8.47064 2.47398 9.32996 1.63078C10.6616 0.331974 12.7607 0.399974 14.0201 1.78038C14.7614 1.63078 15.4764 1.34518 16.1258 0.943976C15.8765 1.73958 15.3583 2.41278 14.6696 2.84118C15.3255 2.75958 15.9684 2.57598 16.5719 2.30398C16.1258 2.99758 15.5617 3.59598 14.9123 4.08559Z" fill="#002856"/>
</svg>
