<svg width="18" height="18" viewBox="0 0 18 18" fill="none" xmlns="http://www.w3.org/2000/svg">
<path d="M15.75 8.25V6.75H14.25V5.25C14.2488 4.85254 14.0904 4.4717 13.8093 4.19065C13.5283 3.9096 13.1475 3.75119 12.75 3.75H11.25V2.25H9.75V3.75H8.25V2.25H6.75V3.75H5.25C4.85254 3.75119 4.4717 3.9096 4.19065 4.19065C3.9096 4.4717 3.75119 4.85254 3.75 5.25V6.75H2.25V8.25H3.75V9.75H2.25V11.25H3.75V12.75C3.75119 13.1475 3.9096 13.5283 4.19065 13.8093C4.4717 14.0904 4.85254 14.2488 5.25 14.25H6.75V15.75H8.25V14.25H9.75V15.75H11.25V14.25H12.75C13.1475 14.2488 13.5283 14.0904 13.8093 13.8093C14.0904 13.5283 14.2488 13.1475 14.25 12.75V11.25H15.75V9.75H14.25V8.25H15.75ZM12.75 12.75H5.25V5.25H12.75V12.75Z" fill="#0050D5"/>
<path d="M8.52406 6H7.51531L6.00781 12H6.77806L7.12606 10.5938H8.86306L9.20206 12H9.99856L8.52406 6ZM7.22731 9.993L7.99081 6.7125H8.02531L8.76256 9.993H7.22731ZM10.6863 6H11.4363V12H10.6863V6Z" fill="#0050D5"/>
</svg>
