<svg width="32" height="33" viewBox="0 0 32 33" fill="none" xmlns="http://www.w3.org/2000/svg">
<path d="M32 0.552734H0V32.5527H32V0.552734Z" fill="white" fill-opacity="0.01"/>
<path d="M16 20.5519V16.5527" stroke="#1D1D1D" strokeWidth="2" strokeLinecap="round" strokeLinejoin="round"/>
<path d="M4 20.5527H16H28V28.5527H4V20.5527Z" stroke="#1D1D1D" strokeWidth="2" strokeLinecap="round" strokeLinejoin="round"/>
<path d="M4 8.88724V8.2207" stroke="#1D1D1D" strokeWidth="2" strokeLinecap="round" strokeLinejoin="round"/>
<path d="M4 12.5513V11.8848" stroke="#1D1D1D" strokeWidth="2" strokeLinecap="round" strokeLinejoin="round"/>
<path d="M4 5.21927V4.55273" stroke="#1D1D1D" strokeWidth="2" strokeLinecap="round" strokeLinejoin="round"/>
<path d="M28 8.88724V8.2207" stroke="#1D1D1D" strokeWidth="2" strokeLinecap="round" strokeLinejoin="round"/>
<path d="M28 12.5513V11.8848" stroke="#1D1D1D" strokeWidth="2" strokeLinecap="round" strokeLinejoin="round"/>
<path d="M28 5.21927V4.55273" stroke="#1D1D1D" strokeWidth="2" strokeLinecap="round" strokeLinejoin="round"/>
<path d="M27.9948 12.5527H27.3281" stroke="#1D1D1D" strokeWidth="2" strokeLinecap="round" strokeLinejoin="round"/>
<path d="M4.66667 12.5527H4" stroke="#1D1D1D" strokeWidth="2" strokeLinecap="round" strokeLinejoin="round"/>
<path d="M4.66667 4.55273H4" stroke="#1D1D1D" strokeWidth="2" strokeLinecap="round" strokeLinejoin="round"/>
<path d="M9.33854 4.55273H8.67188" stroke="#1D1D1D" strokeWidth="2" strokeLinecap="round" strokeLinejoin="round"/>
<path d="M13.9948 4.55273H13.3281" stroke="#1D1D1D" strokeWidth="2" strokeLinecap="round" strokeLinejoin="round"/>
<path d="M13.9948 12.5527H13.3281" stroke="#1D1D1D" strokeWidth="2" strokeLinecap="round" strokeLinejoin="round"/>
<path d="M18.6667 4.55273H18" stroke="#1D1D1D" strokeWidth="2" strokeLinecap="round" strokeLinejoin="round"/>
<path d="M9.33854 12.5527H8.67188" stroke="#1D1D1D" strokeWidth="2" strokeLinecap="round" strokeLinejoin="round"/>
<path d="M18.6667 12.5527H18" stroke="#1D1D1D" strokeWidth="2" strokeLinecap="round" strokeLinejoin="round"/>
<path d="M23.3385 4.55273H22.6719" stroke="#1D1D1D" strokeWidth="2" strokeLinecap="round" strokeLinejoin="round"/>
<path d="M23.3385 12.5527H22.6719" stroke="#1D1D1D" strokeWidth="2" strokeLinecap="round" strokeLinejoin="round"/>
<path d="M27.9948 4.55273H27.3281" stroke="#1D1D1D" strokeWidth="2" strokeLinecap="round" strokeLinejoin="round"/>
</svg>
