<svg width="37" height="34" viewBox="0 0 37 34" fill="none" xmlns="http://www.w3.org/2000/svg">
<ellipse cx="13.25" cy="11" rx="3.5" ry="4" stroke="#1C274C" strokeWidth="1.5"/>
<path d="M20.25 23.002C20.25 25.2111 20.25 27.002 13.25 27.002C6.25 27.002 6.25 25.2111 6.25 23.002C6.25 20.7928 9.38401 19.002 13.25 19.002C17.116 19.002 20.25 20.7928 20.25 23.002Z" stroke="#1C274C" strokeWidth="1.5"/>
<path d="M1 17C1 9.45753 1 5.68629 3.05025 3.34315C5.10051 1 8.40034 1 15 1H22C28.5997 1 31.8995 1 33.9497 3.34315C36 5.68629 36 9.45753 36 17C36 24.5425 36 28.3137 33.9497 30.6569C31.8995 33 28.5997 33 22 33H15C8.40034 33 5.10051 33 3.05025 30.6569C1 28.3137 1 24.5425 1 17Z" stroke="#1C274C" strokeWidth="1.5"/>
<path d="M30.75 17H23.75" stroke="#1C274C" strokeWidth="1.5" strokeLinecap="round"/>
<path d="M30.75 11H22" stroke="#1C274C" strokeWidth="1.5" strokeLinecap="round"/>
<path d="M30.75 22.998H25.5" stroke="#1C274C" strokeWidth="1.5" strokeLinecap="round"/>
</svg>
