<svg width="25" height="20" viewBox="0 0 25 20" fill="none" xmlns="http://www.w3.org/2000/svg">
<g opacity="0.8">
<path d="M24.1314 18.3094H19.2126C19.5507 17.8948 19.6865 17.3623 19.5843 16.8413L18.5763 11.7048C18.4494 11.0586 17.9713 10.528 17.3283 10.3199L14.7577 9.48829C14.7125 9.47365 14.6663 9.4685 14.6215 9.47144V8.80857C15.112 8.27364 15.3804 7.59342 15.3804 6.86955V6.05315C15.821 5.90869 16.1393 5.50395 16.1393 5.02812V3.1867C16.1393 1.98097 15.1286 1 13.8863 1H10.8508C10.3488 1 9.92316 1.32377 9.78409 1.76751C9.1074 1.90557 8.59781 2.48944 8.59781 3.1867V5.02812C8.59781 5.5039 8.91607 5.90865 9.3567 6.05315V6.7615C9.3567 7.52243 9.64427 8.22526 10.1156 8.76217V9.47144C10.0708 9.46854 10.0247 9.47365 9.97937 9.48834L7.40881 10.32C6.76584 10.528 6.28764 11.0586 6.16082 11.7048L5.15282 16.8413C5.05056 17.3623 5.18635 17.8948 5.52453 18.3095H0.60573C0.409272 18.3095 0.25 18.4641 0.25 18.6547C0.25 18.8454 0.409272 19 0.60573 19H6.99322H7.05631H7.8152H16.9219H17.6808H17.7439H24.1314C24.3278 19 24.4871 18.8454 24.4871 18.6547C24.4871 18.4641 24.3278 18.3094 24.1314 18.3094ZM10.4713 10.1611C10.6678 10.1611 10.827 10.0065 10.827 9.81583V9.35921C11.2544 9.61926 11.749 9.7761 12.2762 9.79148C12.3074 9.7924 12.3385 9.79282 12.3696 9.79282C12.9205 9.79282 13.4483 9.65006 13.91 9.38186V9.81583C13.91 10.0065 14.0693 10.1611 14.2658 10.1611C14.2708 10.1611 14.2756 10.1606 14.2805 10.1604C14.1879 11.0119 13.3659 11.6803 12.3685 11.6803C11.3712 11.6803 10.5492 11.0119 10.4566 10.1604C10.4615 10.1606 10.4663 10.1611 10.4713 10.1611ZM9.30927 5.02812V3.1867C9.30927 2.76786 9.66035 2.42711 10.0919 2.42711C10.2883 2.42711 10.4476 2.27252 10.4476 2.08184C10.4476 1.86607 10.6285 1.69054 10.8508 1.69054H13.8863C14.7363 1.69054 15.4278 2.36169 15.4278 3.1867V5.02812C15.4278 5.09451 15.4106 5.15702 15.3804 5.2119V4.65984C15.3804 4.06331 14.8804 3.578 14.2658 3.578H10.4713C9.85671 3.578 9.3567 4.06331 9.3567 4.65984V5.2119C9.32653 5.15702 9.30927 5.09451 9.30927 5.02812ZM10.0682 4.65984C10.0682 4.44407 10.249 4.26853 10.4713 4.26853H14.2658C14.4881 4.26853 14.6689 4.44407 14.6689 4.65984V6.86955C14.6689 7.4786 14.4209 8.04774 13.9704 8.47201C13.5202 8.89609 12.9253 9.1195 12.2975 9.10127C11.0682 9.06545 10.0682 8.01579 10.0682 6.76146V4.65984ZM7.8152 18.3094C7.80211 18.3094 7.79148 18.2991 7.79148 18.2864V13.4987C7.79148 13.486 7.80211 13.4757 7.8152 13.4757H16.9219C16.935 13.4757 16.9456 13.486 16.9456 13.4987V18.2864C16.9456 18.2991 16.935 18.3094 16.9219 18.3094H7.8152ZM17.6808 18.3094H17.6559C17.6561 18.3017 17.6571 18.2942 17.6571 18.2864V13.4987C17.6571 13.1052 17.3273 12.7851 16.9219 12.7851H7.8152C7.40981 12.7851 7.08002 13.1052 7.08002 13.4987V18.2864C7.08002 18.2942 7.08097 18.3017 7.08121 18.3094H7.05631H6.99322C6.64575 18.3094 6.31947 18.1604 6.09797 17.9006C5.87647 17.6407 5.78668 17.3018 5.85176 16.9705L6.85975 11.834C6.93839 11.4332 7.23503 11.1041 7.63382 10.9751L9.75635 10.2883C9.91486 11.46 11.0255 12.3708 12.3685 12.3708C13.7116 12.3708 14.8222 11.46 14.9808 10.2883L17.1033 10.975C17.5021 11.1041 17.7987 11.4332 17.8774 11.834L18.8854 16.9705C18.9504 17.3018 18.8607 17.6408 18.6392 17.9006C18.4177 18.1604 18.0913 18.3094 17.7439 18.3094H17.6808Z" fill="#232323" stroke="#232323" strokeWidth="0.5"/>
<path d="M12.3724 14.9941C11.7578 14.9941 11.2578 15.4794 11.2578 16.076C11.2578 16.6725 11.7578 17.1578 12.3724 17.1578C12.987 17.1578 13.4871 16.6725 13.4871 16.076C13.4871 15.4794 12.987 14.9941 12.3724 14.9941ZM12.3724 16.4673C12.1501 16.4673 11.9693 16.2917 11.9693 16.076C11.9693 15.8602 12.1501 15.6847 12.3724 15.6847C12.5947 15.6847 12.7756 15.8602 12.7756 16.076C12.7756 16.2917 12.5947 16.4673 12.3724 16.4673Z" fill="#232323" stroke="#232323"/>
</g>
</svg>
