<svg width="20" height="20" viewBox="0 0 20 20" fill="none" xmlns="http://www.w3.org/2000/svg">
<g opacity="0.8">
<path d="M5.75 2.20404C7.07378 1.43827 8.61071 1 10.25 1C15.2206 1 19.25 5.02944 19.25 10C19.25 14.9706 15.2206 19 10.25 19C5.27944 19 1.25 14.9706 1.25 10C1.25 8.36071 1.68827 6.82378 2.45404 5.5" stroke="#232323" strokeWidth="1.2" strokeLinecap="round"/>
<path d="M12.794 16.364C12.4597 17.1997 12.0629 17.8626 11.6261 18.3149C11.1893 18.7672 10.7212 19 10.2484 19C9.77568 19 9.30755 18.7672 8.87078 18.3149C8.43401 17.8626 8.03714 17.1997 7.70285 16.364C7.36856 15.5282 7.10339 14.5361 6.92247 13.4442C6.74155 12.3522 6.64844 11.1819 6.64844 10C6.64844 8.8181 6.74155 7.64778 6.92247 6.55585C7.10339 5.46392 7.36856 4.47177 7.70285 3.63604C8.03714 2.80031 8.434 2.13738 8.87078 1.68509C9.30755 1.23279 9.77568 1 10.2484 1C10.7212 1 11.1893 1.23279 11.6261 1.68508C12.0629 2.13738 12.4597 2.80031 12.794 3.63604C13.1283 4.47177 13.3935 5.46392 13.5744 6.55585C13.7553 7.64778 13.8484 8.8181 13.8484 10C13.8484 11.1819 13.7553 12.3522 13.5744 13.4441" stroke="#232323" strokeWidth="1.2" strokeLinecap="round"/>
<path d="M1.25 10H8.45M19.25 10H12.05" stroke="#232323" strokeWidth="1.2" strokeLinecap="round"/>
</g>
</svg>
