<svg width="59" height="62" viewBox="0 0 59 62" fill="none" xmlns="http://www.w3.org/2000/svg">
<path d="M1 30.0787C1 18.4682 1 12.663 4.33898 9.05612C7.67797 5.44922 13.052 5.44922 23.8 5.44922H35.2C45.948 5.44922 51.322 5.44922 54.661 9.05612C58 12.663 58 18.4682 58 30.0787V36.236C58 47.8464 58 53.6517 54.661 57.2586C51.322 60.8655 45.948 60.8655 35.2 60.8655H23.8C13.052 60.8655 7.67797 60.8655 4.33898 57.2586C1 53.6517 1 47.8464 1 36.236V30.0787Z" stroke="#62207E" strokeWidth="1.5"/>
<path d="M15.25 5.44717V0.830078" stroke="#62207E" strokeWidth="1.5" strokeLinecap="round"/>
<path d="M43.75 5.44717V0.830078" stroke="#62207E" strokeWidth="1.5" strokeLinecap="round"/>
<path d="M2.42969 20.8418H56.5797" stroke="#62207E" strokeWidth="1.5" strokeLinecap="round"/>
<path d="M46.5984 45.4696C46.5984 47.1699 45.3224 48.5483 43.7484 48.5483C42.1744 48.5483 40.8984 47.1699 40.8984 45.4696C40.8984 43.7693 42.1744 42.3909 43.7484 42.3909C45.3224 42.3909 46.5984 43.7693 46.5984 45.4696Z" fill="#62207E"/>
<path d="M46.5984 33.1549C46.5984 34.8552 45.3224 36.2335 43.7484 36.2335C42.1744 36.2335 40.8984 34.8552 40.8984 33.1549C40.8984 31.4545 42.1744 30.0762 43.7484 30.0762C45.3224 30.0762 46.5984 31.4545 46.5984 33.1549Z" fill="#62207E"/>
<path d="M32.3484 45.4696C32.3484 47.1699 31.0724 48.5483 29.4984 48.5483C27.9244 48.5483 26.6484 47.1699 26.6484 45.4696C26.6484 43.7693 27.9244 42.3909 29.4984 42.3909C31.0724 42.3909 32.3484 43.7693 32.3484 45.4696Z" fill="#62207E"/>
<path d="M32.3484 33.1549C32.3484 34.8552 31.0724 36.2335 29.4984 36.2335C27.9244 36.2335 26.6484 34.8552 26.6484 33.1549C26.6484 31.4545 27.9244 30.0762 29.4984 30.0762C31.0724 30.0762 32.3484 31.4545 32.3484 33.1549Z" fill="#62207E"/>
<path d="M18.0984 45.4696C18.0984 47.1699 16.8224 48.5483 15.2484 48.5483C13.6744 48.5483 12.3984 47.1699 12.3984 45.4696C12.3984 43.7693 13.6744 42.3909 15.2484 42.3909C16.8224 42.3909 18.0984 43.7693 18.0984 45.4696Z" fill="#62207E"/>
<path d="M18.0984 33.1549C18.0984 34.8552 16.8224 36.2335 15.2484 36.2335C13.6744 36.2335 12.3984 34.8552 12.3984 33.1549C12.3984 31.4545 13.6744 30.0762 15.2484 30.0762C16.8224 30.0762 18.0984 31.4545 18.0984 33.1549Z" fill="#62207E"/>
</svg>
