<svg width="19" height="18" viewBox="0 0 19 18" fill="none" xmlns="http://www.w3.org/2000/svg">
<path fill-rule="evenodd" clip-rule="evenodd" d="M4.39831 2.02902C4.37294 0.877254 3.5493 0 2.21184 0C0.874384 0 0 0.877254 0 2.02902C0 3.15693 0.848541 4.05945 2.16109 4.05945H2.18608C3.5493 4.05945 4.39831 3.15693 4.39831 2.02902ZM4.1401 5.66211H0.230469V17.4089H4.1401V5.66211ZM13.7388 5.38672C16.3115 5.38672 18.2402 7.06599 18.2402 10.6741L18.2401 17.4094H14.3306V11.1248C14.3306 9.54627 13.7649 8.46912 12.3496 8.46912C11.2694 8.46912 10.6261 9.19528 10.3435 9.89664C10.2402 10.148 10.2148 10.4982 10.2148 10.8493V17.4097H6.30469C6.30469 17.4097 6.35622 6.76513 6.30469 5.66287H10.2148V7.3267C10.7337 6.52687 11.663 5.38672 13.7388 5.38672Z" fill="#101010"/>
</svg>
