<svg width="14" height="14" viewBox="0 0 14 14" fill="none" xmlns="http://www.w3.org/2000/svg">
<g clip-path="url(#clip0_1744_1144)">
<path d="M1.75 8.75V9.625H3.75638L0.875 12.5064L1.49363 13.125L4.375 10.2436V12.25H5.25V8.75H1.75ZM10.5 9.1875H11.375V11.375H10.5V9.1875ZM8.75 7H9.625V11.375H8.75V7ZM7 7.875H7.875V11.375H7V7.875Z" fill="#0050D5"/>
<path d="M12.25 0.875H1.75C1.51801 0.875232 1.29558 0.967493 1.13154 1.13154C0.967493 1.29558 0.875232 1.51801 0.875 1.75V7H1.75V5.6875H12.2504L12.2509 12.25H7V13.125H12.25C12.482 13.1247 12.7043 13.0324 12.8683 12.8683C13.0324 12.7043 13.1247 12.482 13.125 12.25V1.75C13.1248 1.51801 13.0325 1.29558 12.8685 1.13154C12.7044 0.967493 12.482 0.875232 12.25 0.875ZM5.25 4.8125H1.75V1.75H5.25V4.8125ZM6.125 4.8125V1.75H12.25V4.8125H6.125Z" fill="#0050D5"/>
</g>
<defs>
<clipPath id="clip0_1744_1144">
<rect width="14" height="14" fill="white"/>
</clipPath>
</defs>
</svg>
