<svg width="18" height="18" viewBox="0 0 18 18" fill="none" xmlns="http://www.w3.org/2000/svg">
<g opacity="0.8">
<path d="M5.67303 12.577C1.72212 8.62602 0.120681 3.82172 2.09614 1.84626C3.68881 0.253578 7.12023 0.985899 10.4607 3.4M12.8268 5.42316C16.7777 9.37409 18.3792 14.1784 16.4037 16.1539C14.8128 17.7448 11.3871 17.0158 8.05 14.608M16.4039 1.84614C18.3793 3.82161 16.7779 8.62591 12.827 12.5768C8.87604 16.5278 4.07176 18.1292 2.0963 16.1537C0.503635 14.5611 1.23594 11.1297 3.65 7.78917C4.23022 6.98628 4.90759 6.18864 5.67319 5.42304C9.62411 1.47211 14.4284 -0.129324 16.4039 1.84614Z" stroke="#232323" strokeWidth="1.2" strokeLinecap="round"/>
<path d="M11.25 9C11.25 10.1046 10.3546 11 9.25 11C8.14543 11 7.25 10.1046 7.25 9C7.25 7.89543 8.14543 7 9.25 7C10.3546 7 11.25 7.89543 11.25 9Z" stroke="#232323" strokeWidth="1.2"/>
</g>
</svg>
