<svg width="19" height="18" viewBox="0 0 19 18" fill="none" xmlns="http://www.w3.org/2000/svg">
<g opacity="0.8">
<path d="M0.75 1.89474C0.75 1.40059 1.15059 1 1.64474 1H16.8553C17.3494 1 17.75 1.40059 17.75 1.89474V12.6316C17.75 13.1257 17.3494 13.5263 16.8553 13.5263H1.64474C1.15059 13.5263 0.75 13.1257 0.75 12.6316V1.89474Z" stroke="#232323" strokeWidth="1.2" strokeLinecap="round" strokeLinejoin="round"/>
<path d="M0.75 9.94747C0.75 9.45331 1.15059 9.05273 1.64474 9.05273H16.8553C17.3494 9.05273 17.75 9.45331 17.75 9.94747V12.6317C17.75 13.1258 17.3494 13.5264 16.8553 13.5264H1.64474C1.15059 13.5264 0.75 13.1258 0.75 12.6317V9.94747Z" stroke="#232323" strokeWidth="1.2" strokeLinecap="round" strokeLinejoin="round"/>
<path d="M8.35197 3.68359L6.5625 5.92044" stroke="#232323" strokeWidth="1.2" strokeLinecap="round" strokeLinejoin="round"/>
<path d="M11.0374 4.57812L9.69531 6.3676" stroke="#232323" strokeWidth="1.2" strokeLinecap="round" strokeLinejoin="round"/>
<path d="M6.11554 13.5254L4.77344 17.1043H13.7208L12.3787 13.5254" stroke="#232323" strokeWidth="1.2" strokeLinecap="round" strokeLinejoin="round"/>
</g>
</svg>
