<svg width="14" height="14" viewBox="0 0 14 14" fill="none" xmlns="http://www.w3.org/2000/svg">
<g clip-path="url(#clip0_1744_1130)">
<path d="M12.5579 2.625L8.96875 6.17148V2.625H8.02471L4.59375 6.10496V0.4375H0.4375V13.5625H13.5625V2.625H12.5579ZM12.6875 12.6875H1.3125V1.3125H3.71875V7.21875H4.7244L8.09375 3.80127V7.21875H9.1537L12.6875 3.72695V12.6875Z" fill="#0050D5"/>
<path d="M3.71875 8.96875V9.1875H4.59375V8.3125H3.71875V8.96875ZM3.71875 10.2812H4.59375V11.1562H3.71875V10.2812ZM5.90625 8.96875V9.1875H6.78125V8.3125H5.90625V8.96875ZM5.90625 10.2812H6.78125V11.1562H5.90625V10.2812ZM8.09375 8.96875V9.1875H8.96875V8.3125H8.09375V8.96875ZM8.09375 10.2812H8.96875V11.1562H8.09375V10.2812ZM10.2812 8.3125H11.1562V9.1875H10.2812V8.3125ZM10.2812 10.2812H11.1562V11.1562H10.2812V10.2812Z" fill="#0050D5"/>
</g>
<defs>
<clipPath id="clip0_1744_1130">
<rect width="14" height="14" fill="white"/>
</clipPath>
</defs>
</svg>
