<svg width="15" height="15" viewBox="0 0 15 15" fill="none" xmlns="http://www.w3.org/2000/svg">
<path d="M12.6945 4.70086C12.6229 4.70115 12.5522 4.68507 12.4877 4.65385L7.05392 1.88055L1.62012 4.63505C1.50418 4.6899 1.3712 4.69645 1.25043 4.65326C1.12966 4.61007 1.031 4.52067 0.976145 4.40473C0.921292 4.28879 0.914743 4.15581 0.957937 4.03504C1.00113 3.91427 1.09053 3.81561 1.20647 3.76076L7.05392 0.865234L12.9014 3.76076C13.0246 3.78955 13.1316 3.86574 13.1991 3.97282C13.2666 4.07991 13.2892 4.20927 13.262 4.33289C13.2348 4.45651 13.16 4.56444 13.0538 4.63331C12.9476 4.70219 12.8185 4.72645 12.6945 4.70086ZM4.70366 9.40138H1.88335V12.2217H4.70366V9.40138ZM8.46408 9.40138H5.64376V12.2217H8.46408V9.40138ZM12.2245 9.40138H9.40418V12.2217H12.2245V9.40138ZM10.3443 5.64096H7.52397V8.46128H10.3443V5.64096ZM6.58387 5.64096H3.76355V8.46128H6.58387V5.64096Z" fill="#0050D5"/>
</svg>
