<svg width="55" height="61" viewBox="0 0 55 61" fill="none" xmlns="http://www.w3.org/2000/svg">
<path d="M55 0.773438H0V60.1866H55V0.773438Z" fill="white" fill-opacity="0.01"/>
<path d="M27.5 51.4546C29.9326 53.8066 33.1451 55.2367 36.6667 55.2367C44.2606 55.2367 50.4167 48.5867 50.4167 40.3835C50.4167 33.4624 46.0347 27.647 40.1042 25.998" stroke="#62207E" strokeWidth="2" strokeLinejoin="round"/>
<path d="M14.8906 25.998C8.96016 27.647 4.57812 33.4624 4.57812 40.3835C4.57812 48.5867 10.7342 55.2367 18.3281 55.2367C25.922 55.2367 32.0781 48.5867 32.0781 40.3835C32.0781 38.4655 31.7416 36.6326 31.1289 34.9496" stroke="#62207E" strokeWidth="2" strokeLinejoin="round"/>
<path d="M27.5 35.4292C35.0939 35.4292 41.25 28.7792 41.25 20.5759C41.25 12.3727 35.0939 5.72266 27.5 5.72266C19.9061 5.72266 13.75 12.3727 13.75 20.5759C13.75 28.7792 19.9061 35.4292 27.5 35.4292Z" stroke="#62207E" strokeWidth="2" strokeLinejoin="round"/>
</svg>
