<svg width="15" height="14" viewBox="0 0 15 14" fill="none" xmlns="http://www.w3.org/2000/svg">
<path fill-rule="evenodd" clip-rule="evenodd" d="M0.25 6.99923C0.25 6.75059 0.34548 6.51213 0.515435 6.33632C0.685389 6.1605 0.915898 6.06173 1.15625 6.06173H11.6561L7.76462 2.03798C7.59446 1.86194 7.49885 1.62319 7.49885 1.37423C7.49885 1.12528 7.59446 0.886519 7.76462 0.710481C7.93479 0.534444 8.16559 0.435547 8.40625 0.435547C8.64691 0.435547 8.87771 0.534444 9.04788 0.710481L14.4854 6.33548C14.5698 6.42257 14.6367 6.52602 14.6824 6.63992C14.7281 6.75382 14.7516 6.87592 14.7516 6.99923C14.7516 7.12255 14.7281 7.24465 14.6824 7.35854C14.6367 7.47244 14.5698 7.5759 14.4854 7.66298L9.04788 13.288C8.87771 13.464 8.64691 13.5629 8.40625 13.5629C8.16559 13.5629 7.93479 13.464 7.76462 13.288C7.59446 13.1119 7.49885 12.8732 7.49885 12.6242C7.49885 12.3753 7.59446 12.1365 7.76462 11.9605L11.6561 7.93673H1.15625C0.915898 7.93673 0.685389 7.83796 0.515435 7.66214C0.34548 7.48633 0.25 7.24787 0.25 6.99923Z" fill="#0050D5"/>
</svg>
