<svg width="53" height="40" viewBox="0 0 53 40" fill="none" xmlns="http://www.w3.org/2000/svg">
<path opacity="0.6" d="M15.888 17.664C17.8507 17.664 19.472 18.432 20.752 19.968C22.032 21.4187 22.672 23.5093 22.672 26.24C22.672 27.9467 22.416 29.568 21.904 31.104C21.392 32.64 20.624 34.0053 19.6 35.2C18.576 36.3947 17.296 37.376 15.76 38.144C14.224 38.8267 12.432 39.168 10.384 39.168C9.01867 39.168 7.73867 38.9973 6.544 38.656C5.43467 38.2293 4.45333 37.5893 3.6 36.736C2.74667 35.7973 2.064 34.56 1.552 33.024C1.04 31.488 0.784 29.5253 0.784 27.136C0.784 23.7227 1.296 20.3947 2.32 17.152C3.344 13.9093 4.70933 11.008 6.416 8.448C8.208 5.888 10.2133 3.83999 12.432 2.30399C14.6507 0.767993 16.9973 -7.62939e-06 19.472 -7.62939e-06C21.4347 -7.62939e-06 22.7147 0.469327 23.312 1.408C23.9947 2.26133 24.336 3.28533 24.336 4.48C24.336 4.82133 23.8667 5.41866 22.928 6.272C22.0747 7.12533 21.136 8.14933 20.112 9.34399C19.088 10.4533 18.1067 11.7333 17.168 13.184C16.3147 14.6347 15.888 16.128 15.888 17.664ZM43.792 17.664C45.7547 17.664 47.376 18.432 48.656 19.968C49.936 21.4187 50.576 23.5093 50.576 26.24C50.576 27.9467 50.32 29.568 49.808 31.104C49.296 32.64 48.528 34.0053 47.504 35.2C46.48 36.3947 45.2 37.376 43.664 38.144C42.128 38.8267 40.336 39.168 38.288 39.168C36.9227 39.168 35.6427 38.9973 34.448 38.656C33.3387 38.2293 32.3573 37.5893 31.504 36.736C30.6507 35.7973 29.968 34.56 29.456 33.024C28.944 31.488 28.688 29.5253 28.688 27.136C28.688 23.7227 29.2 20.3947 30.224 17.152C31.248 13.9093 32.6133 11.008 34.32 8.448C36.112 5.888 38.1173 3.83999 40.336 2.30399C42.5547 0.767993 44.9013 -7.62939e-06 47.376 -7.62939e-06C49.3387 -7.62939e-06 50.6187 0.469327 51.216 1.408C51.8987 2.26133 52.24 3.28533 52.24 4.48C52.24 4.82133 51.7707 5.41866 50.832 6.272C49.9787 7.12533 49.04 8.14933 48.016 9.34399C46.992 10.4533 46.0107 11.7333 45.072 13.184C44.2187 14.6347 43.792 16.128 43.792 17.664Z" fill="#0050D5"/>
</svg>
