<svg width="53" height="40" viewBox="0 0 53 40" fill="none" xmlns="http://www.w3.org/2000/svg">
<path opacity="0.6" d="M37.112 22.336C35.1493 22.336 33.528 21.568 32.248 20.032C30.968 18.5813 30.328 16.4907 30.328 13.76C30.328 12.0533 30.584 10.432 31.096 8.896C31.608 7.36 32.376 5.99467 33.4 4.8C34.424 3.60534 35.704 2.624 37.24 1.856C38.776 1.17334 40.568 0.832005 42.616 0.832005C43.9813 0.832005 45.2613 1.00267 46.456 1.344C47.5653 1.77067 48.5467 2.41067 49.4 3.264C50.2533 4.20267 50.936 5.44 51.448 6.976C51.96 8.512 52.216 10.4747 52.216 12.864C52.216 16.2773 51.704 19.6053 50.68 22.848C49.656 26.0907 48.2907 28.992 46.584 31.552C44.792 34.112 42.7867 36.16 40.568 37.696C38.3493 39.232 36.0027 40 33.528 40C31.5653 40 30.2853 39.5307 29.688 38.592C29.0053 37.7387 28.664 36.7147 28.664 35.52C28.664 35.1787 29.1333 34.5813 30.072 33.728C30.9253 32.8747 31.864 31.8507 32.888 30.656C33.912 29.5467 34.8933 28.2667 35.832 26.816C36.6853 25.3653 37.112 23.872 37.112 22.336ZM9.208 22.336C7.24533 22.336 5.624 21.568 4.344 20.032C3.064 18.5813 2.424 16.4907 2.424 13.76C2.424 12.0533 2.68 10.432 3.192 8.896C3.704 7.36 4.472 5.99467 5.496 4.8C6.52 3.60534 7.8 2.624 9.336 1.856C10.872 1.17334 12.664 0.832005 14.712 0.832005C16.0773 0.832005 17.3573 1.00267 18.552 1.344C19.6613 1.77067 20.6427 2.41067 21.496 3.264C22.3493 4.20267 23.032 5.44 23.544 6.976C24.056 8.512 24.312 10.4747 24.312 12.864C24.312 16.2773 23.8 19.6053 22.776 22.848C21.752 26.0907 20.3867 28.992 18.68 31.552C16.888 34.112 14.8827 36.16 12.664 37.696C10.4453 39.232 8.09866 40 5.624 40C3.66133 40 2.38133 39.5307 1.784 38.592C1.10133 37.7387 0.759998 36.7147 0.759998 35.52C0.759998 35.1787 1.22933 34.5813 2.168 33.728C3.02133 32.8747 3.96 31.8507 4.984 30.656C6.008 29.5467 6.98933 28.2667 7.928 26.816C8.78133 25.3653 9.208 23.872 9.208 22.336Z" fill="white"/>
</svg>
