<svg width="40" height="40" viewBox="0 0 40 40" fill="none" xmlns="http://www.w3.org/2000/svg">
<path d="M31.2983 13.0604L23.1949 4.27608C23.0322 4.09952 22.8116 4.00022 22.5814 4H8.6899C8.15262 4 7.63734 4.23137 7.25742 4.64322C6.8775 5.05506 6.66406 5.61364 6.66406 6.19608V33.8039C6.66406 34.3864 6.8775 34.9449 7.25742 35.3568C7.63734 35.7686 8.15262 36 8.6899 36H29.5271C30.0644 36 30.5797 35.7686 30.9596 35.3568C31.3395 34.9449 31.553 34.3864 31.553 33.8039V13.7255C31.5527 13.476 31.4611 13.2367 31.2983 13.0604ZM23.4496 7.21255L28.5894 12.7843H23.4496V7.21255ZM29.5271 34.1176H8.6899C8.61315 34.1176 8.53954 34.0846 8.48526 34.0258C8.43099 33.9669 8.4005 33.8871 8.4005 33.8039V6.19608C8.4005 6.11287 8.43099 6.03308 8.48526 5.97424C8.53954 5.91541 8.61315 5.88235 8.6899 5.88235H21.7132V13.7255C21.7132 13.9751 21.8046 14.2145 21.9675 14.391C22.1303 14.5675 22.3511 14.6667 22.5814 14.6667H29.8165V33.8039C29.8165 33.8871 29.786 33.9669 29.7318 34.0258C29.6775 34.0846 29.6039 34.1176 29.5271 34.1176ZM24.6072 21.2549C24.6072 21.5045 24.5157 21.7439 24.3529 21.9204C24.1901 22.0969 23.9693 22.1961 23.739 22.1961H14.478C14.2478 22.1961 14.0269 22.0969 13.8641 21.9204C13.7013 21.7439 13.6098 21.5045 13.6098 21.2549C13.6098 21.0053 13.7013 20.7659 13.8641 20.5894C14.0269 20.4129 14.2478 20.3137 14.478 20.3137H23.739C23.9693 20.3137 24.1901 20.4129 24.3529 20.5894C24.5157 20.7659 24.6072 21.0053 24.6072 21.2549ZM24.6072 26.2745C24.6072 26.5241 24.5157 26.7635 24.3529 26.94C24.1901 27.1165 23.9693 27.2157 23.739 27.2157H14.478C14.2478 27.2157 14.0269 27.1165 13.8641 26.94C13.7013 26.7635 13.6098 26.5241 13.6098 26.2745C13.6098 26.0249 13.7013 25.7855 13.8641 25.609C14.0269 25.4325 14.2478 25.3333 14.478 25.3333H23.739C23.9693 25.3333 24.1901 25.4325 24.3529 25.609C24.5157 25.7855 24.6072 26.0249 24.6072 26.2745Z" fill="#E7EBF6"/>
<path d="M5.88707 29.418H0.171875V35.524H18.1492V29.418H5.88707Z" fill="#7A7B7C"/>
<path d="M18.2748 37.0692H0.34375V29.3105H18.2748V37.0692Z" fill="#DD2025"/>
<path d="M6.23929 31.2049H5.07031V35.4981H5.98975V34.05L6.19278 34.0617C6.39006 34.0583 6.58548 34.0229 6.77146 33.957C6.93451 33.9009 7.0845 33.8124 7.21239 33.6967C7.34253 33.5866 7.44513 33.4475 7.51202 33.2907C7.60172 33.03 7.63376 32.7529 7.60593 32.4786C7.60034 32.2826 7.56599 32.0885 7.50397 31.9026C7.44751 31.7683 7.36372 31.6473 7.25793 31.5472C7.15214 31.4471 7.02668 31.3702 6.88952 31.3212C6.77093 31.2783 6.6484 31.2471 6.52371 31.2282C6.42928 31.2136 6.33393 31.2059 6.23839 31.2049M6.06935 33.2567H5.98975V31.933H6.16237C6.23856 31.9275 6.315 31.9392 6.38606 31.9672C6.45712 31.9952 6.52097 32.0389 6.5729 32.0949C6.68051 32.2389 6.738 32.4142 6.73657 32.5939C6.73657 32.814 6.73657 33.0134 6.53802 33.1538C6.39497 33.2325 6.23215 33.2688 6.06935 33.2567ZM9.35268 31.1933C9.25341 31.1933 9.15681 31.2005 9.08884 31.2032L8.87597 31.2085H8.17834V35.5016H8.9994C9.31317 35.5102 9.62558 35.457 9.91884 35.3451C10.1549 35.2515 10.3639 35.1006 10.527 34.906C10.6857 34.7096 10.7995 34.481 10.8606 34.2361C10.9309 33.9587 10.9652 33.6734 10.9626 33.3873C10.9799 33.0493 10.9538 32.7106 10.8848 32.3793C10.8193 32.1354 10.6967 31.9107 10.527 31.7237C10.3939 31.5727 10.231 31.4509 10.0485 31.3659C9.89181 31.2934 9.72695 31.24 9.5575 31.2067C9.49011 31.1956 9.42187 31.1905 9.35358 31.1915M9.1908 34.7128H9.10136V31.9723H9.11299C9.29737 31.9511 9.48394 31.9844 9.64962 32.068C9.77096 32.1649 9.86983 32.287 9.93941 32.4258C10.0145 32.5719 10.0578 32.7322 10.0664 32.8963C10.0745 33.093 10.0664 33.254 10.0664 33.3873C10.0701 33.5408 10.0602 33.6943 10.0369 33.8461C10.0093 34.0019 9.95837 34.1527 9.88574 34.2933C9.80354 34.424 9.69248 34.5342 9.56108 34.6153C9.45073 34.6867 9.32006 34.72 9.18901 34.7101M13.7325 31.2085H11.5592V35.5016H12.4786V33.7987H13.6413V33.0009H12.4786V32.0063H13.7308V31.2085" fill="#464648"/>
<path d="M6.17679 31.1366H5.00781V35.4297H5.93083V33.9826L6.13475 33.9942C6.33203 33.9908 6.52745 33.9555 6.71343 33.8895C6.87647 33.8334 7.02646 33.7449 7.15436 33.6293C7.28352 33.5188 7.38518 33.3798 7.4513 33.2232C7.54101 32.9625 7.57305 32.6854 7.54522 32.4111C7.53963 32.2151 7.50528 32.0211 7.44325 31.8351C7.38679 31.7009 7.303 31.5799 7.19722 31.4798C7.09143 31.3797 6.96596 31.3027 6.8288 31.2538C6.70967 31.2104 6.58654 31.1789 6.46121 31.1598C6.36678 31.1453 6.27143 31.1375 6.17589 31.1366M6.00685 33.1883H5.92725V31.8646H6.10077C6.17695 31.8591 6.2534 31.8708 6.32445 31.8989C6.39551 31.9269 6.45936 31.9705 6.51129 32.0265C6.61891 32.1705 6.67639 32.3458 6.67497 32.5256C6.67497 32.7456 6.67497 32.9451 6.47641 33.0855C6.33337 33.1642 6.17055 33.1996 6.00775 33.1874M9.29018 31.125C9.19091 31.125 9.09431 31.1321 9.02634 31.1348L8.81615 31.1402H8.11852V35.4333H8.93958C9.25336 35.4419 9.56576 35.3887 9.85902 35.2768C10.0951 35.1831 10.3041 35.0322 10.4672 34.8376C10.6258 34.6412 10.7397 34.4126 10.8008 34.1677C10.8711 33.8903 10.9054 33.605 10.9028 33.3189C10.9201 32.981 10.894 32.6422 10.825 32.3109C10.7595 32.0671 10.6368 31.8424 10.4672 31.6553C10.3341 31.5043 10.1712 31.3825 9.98871 31.2976C9.83199 31.2251 9.66714 31.1716 9.49768 31.1384C9.4303 31.1272 9.36205 31.1222 9.29376 31.1232M9.13098 34.6444H9.04154V31.904H9.05317C9.23756 31.8828 9.42412 31.916 9.58981 31.9997C9.71114 32.0966 9.81001 32.2186 9.87959 32.3574C9.95468 32.5035 9.99796 32.6639 10.0066 32.8279C10.0146 33.0247 10.0066 33.1857 10.0066 33.3189C10.0102 33.4724 10.0004 33.626 9.97708 33.7777C9.94951 33.9336 9.89855 34.0843 9.82593 34.2249C9.74372 34.3557 9.63266 34.4658 9.50126 34.5469C9.39091 34.6183 9.26024 34.6516 9.12919 34.6417M13.67 31.1402H11.4967V35.4333H12.4161V33.7303H13.5788V32.9325H12.4161V31.938H13.6683V31.1402" fill="white"/>
</svg>
