<svg width="22" height="22" viewBox="0 0 22 22" fill="none" xmlns="http://www.w3.org/2000/svg">
<path d="M13.0367 3.25658C13.0596 3.16919 13.0997 3.08723 13.1546 3.01553C13.2095 2.94382 13.2782 2.8838 13.3567 2.83898C13.4351 2.79416 13.5217 2.76544 13.6114 2.75451C13.7011 2.74358 13.792 2.75066 13.8789 2.77533C15.1605 3.11906 16.3291 3.79393 17.2674 4.73219C18.2056 5.67044 18.8805 6.83905 19.2242 8.12064C19.2489 8.20755 19.256 8.2985 19.245 8.38817C19.2341 8.47784 19.2054 8.56443 19.1606 8.64287C19.1158 8.7213 19.0557 8.79 18.984 8.84494C18.9123 8.89988 18.8304 8.93996 18.743 8.96283C18.6843 8.97982 18.6236 8.9885 18.5625 8.98861C18.4108 8.98774 18.2636 8.93669 18.1439 8.84342C18.0242 8.75016 17.9387 8.61991 17.9008 8.47299C17.6149 7.42651 17.0611 6.47267 16.294 5.70558C15.5269 4.93849 14.573 4.38467 13.5266 4.09877C13.4384 4.07684 13.3555 4.03744 13.2829 3.98291C13.2102 3.92837 13.1492 3.8598 13.1035 3.78126C13.0579 3.70273 13.0284 3.61582 13.0169 3.5257C13.0055 3.43557 13.0122 3.34406 13.0367 3.25658ZM12.8133 6.75424C13.395 6.91347 13.9252 7.22148 14.3516 7.64793C14.7781 8.07439 15.0861 8.60457 15.2453 9.18627C15.2819 9.33392 15.367 9.46501 15.487 9.55851C15.607 9.65201 15.7549 9.70251 15.907 9.70189C15.9653 9.70246 16.0233 9.69376 16.0789 9.67611C16.1671 9.65419 16.2499 9.61479 16.3226 9.56025C16.3953 9.50571 16.4563 9.43714 16.5019 9.35861C16.5476 9.28007 16.5771 9.19317 16.5885 9.10304C16.6 9.01291 16.5933 8.9214 16.5688 8.83392C16.3517 8.0171 15.9227 7.27214 15.325 6.67451C14.7274 6.07689 13.9825 5.64783 13.1656 5.4308C13.0759 5.39813 12.9804 5.38449 12.8852 5.39075C12.79 5.39701 12.6971 5.42303 12.6124 5.46715C12.5278 5.51128 12.4533 5.57255 12.3936 5.64705C12.334 5.72155 12.2905 5.80766 12.2659 5.89989C12.2414 5.99213 12.2363 6.08846 12.251 6.18276C12.2657 6.27707 12.2999 6.36727 12.3514 6.44764C12.4029 6.52801 12.4706 6.59677 12.5501 6.64956C12.6296 6.70234 12.7192 6.73799 12.8133 6.75424ZM19.9031 15.0472C19.7511 16.2077 19.1828 17.2735 18.304 18.0465C17.4251 18.8195 16.2954 19.247 15.125 19.2495C8.30156 19.2495 2.75 13.698 2.75 6.87455C2.75258 5.70413 3.18009 4.57447 3.95306 3.6956C4.72602 2.81673 5.79184 2.24845 6.95234 2.09642C7.24818 2.06362 7.54677 2.12591 7.80482 2.27425C8.06288 2.42259 8.26697 2.64927 8.3875 2.92142L10.1148 6.95189C10.2044 7.1611 10.2404 7.38937 10.2194 7.61599C10.1983 7.8426 10.1211 8.06038 9.99453 8.24955L8.56797 10.4324C9.21395 11.7433 10.2783 12.8017 11.593 13.4402L13.75 12.005C13.939 11.8776 14.1573 11.8005 14.3843 11.781C14.6114 11.7614 14.8397 11.8001 15.0477 11.8933L19.0781 13.612C19.3503 13.7326 19.577 13.9367 19.7253 14.1947C19.8736 14.4528 19.9359 14.7514 19.9031 15.0472ZM18.5367 14.8753L14.5063 13.1566L12.3578 14.5917C12.1601 14.7224 11.932 14.7998 11.6956 14.8164C11.4592 14.8329 11.2226 14.7881 11.0086 14.6863C9.40753 13.9118 8.11244 12.6228 7.33047 11.0253C7.22737 10.8121 7.1811 10.5758 7.19616 10.3394C7.21122 10.103 7.28708 9.87456 7.41641 9.67611L8.85156 7.4933L7.12422 3.46283C6.29488 3.56944 5.53283 3.97469 4.98076 4.60269C4.42869 5.23069 4.12445 6.03839 4.125 6.87455C4.12728 9.79123 5.28693 12.5878 7.34934 14.6502C9.41175 16.7126 12.2083 17.8723 15.125 17.8745C15.9612 17.8751 16.7689 17.5709 17.3969 17.0188C18.0249 16.4667 18.4301 15.7047 18.5367 14.8753Z" fill="white"/>
</svg>
