<svg width="18" height="18" viewBox="0 0 18 18" fill="none" xmlns="http://www.w3.org/2000/svg">
<path d="M6 6C5.80109 6 5.61032 6.07902 5.46967 6.21967C5.32902 6.36032 5.25 6.55109 5.25 6.75C5.25 6.94891 5.32902 7.13968 5.46967 7.28033C5.61032 7.42098 5.80109 7.5 6 7.5H6.75C6.94891 7.5 7.13968 7.42098 7.28033 7.28033C7.42098 7.13968 7.5 6.94891 7.5 6.75C7.5 6.55109 7.42098 6.36032 7.28033 6.21967C7.13968 6.07902 6.94891 6 6.75 6H6ZM9.75 15H4.5C4.30109 15 4.11032 14.921 3.96967 14.7803C3.82902 14.6397 3.75 14.4489 3.75 14.25V3.75C3.75 3.55109 3.82902 3.36032 3.96967 3.21967C4.11032 3.07902 4.30109 3 4.5 3H8.25V5.25C8.25 5.84674 8.48705 6.41903 8.90901 6.84099C9.33097 7.26295 9.90326 7.5 10.5 7.5H12.75V9C12.75 9.19891 12.829 9.38968 12.9697 9.53033C13.1103 9.67098 13.3011 9.75 13.5 9.75C13.6989 9.75 13.8897 9.67098 14.0303 9.53033C14.171 9.38968 14.25 9.19891 14.25 9V6.705C14.2422 6.6361 14.2271 6.56822 14.205 6.5025V6.435C14.1689 6.35789 14.1208 6.287 14.0625 6.225L9.5625 1.725C9.5005 1.66666 9.42962 1.61856 9.3525 1.5825C9.32769 1.57816 9.30231 1.57816 9.2775 1.5825C9.20457 1.5435 9.1262 1.51569 9.045 1.5H4.5C3.90326 1.5 3.33097 1.73705 2.90901 2.15901C2.48705 2.58097 2.25 3.15326 2.25 3.75V14.25C2.25 14.8467 2.48705 15.419 2.90901 15.841C3.33097 16.2629 3.90326 16.5 4.5 16.5H9.75C9.94891 16.5 10.1397 16.421 10.2803 16.2803C10.421 16.1397 10.5 15.9489 10.5 15.75C10.5 15.5511 10.421 15.3603 10.2803 15.2197C10.1397 15.079 9.94891 15 9.75 15ZM9.75 4.0575L11.6925 6H10.5C10.3011 6 10.1103 5.92098 9.96967 5.78033C9.82902 5.63968 9.75 5.44891 9.75 5.25V4.0575ZM10.5 9H6C5.80109 9 5.61032 9.07902 5.46967 9.21967C5.32902 9.36032 5.25 9.55109 5.25 9.75C5.25 9.94891 5.32902 10.1397 5.46967 10.2803C5.61032 10.421 5.80109 10.5 6 10.5H10.5C10.6989 10.5 10.8897 10.421 11.0303 10.2803C11.171 10.1397 11.25 9.94891 11.25 9.75C11.25 9.55109 11.171 9.36032 11.0303 9.21967C10.8897 9.07902 10.6989 9 10.5 9ZM15.5325 13.7175C15.4628 13.6472 15.3798 13.5914 15.2884 13.5533C15.197 13.5153 15.099 13.4957 15 13.4957C14.901 13.4957 14.803 13.5153 14.7116 13.5533C14.6202 13.5914 14.5372 13.6472 14.4675 13.7175L14.25 13.9425V12C14.25 11.8011 14.171 11.6103 14.0303 11.4697C13.8897 11.329 13.6989 11.25 13.5 11.25C13.3011 11.25 13.1103 11.329 12.9697 11.4697C12.829 11.6103 12.75 11.8011 12.75 12V13.9425L12.5325 13.7175C12.3913 13.5763 12.1997 13.4969 12 13.4969C11.8003 13.4969 11.6087 13.5763 11.4675 13.7175C11.3263 13.8587 11.2469 14.0503 11.2469 14.25C11.2469 14.4497 11.3263 14.6413 11.4675 14.7825L12.9675 16.2825C13.0388 16.3508 13.1229 16.4043 13.215 16.44C13.3048 16.4797 13.4018 16.5002 13.5 16.5002C13.5982 16.5002 13.6952 16.4797 13.785 16.44C13.8771 16.4043 13.9612 16.3508 14.0325 16.2825L15.5325 14.7825C15.6028 14.7128 15.6586 14.6298 15.6967 14.5384C15.7347 14.447 15.7543 14.349 15.7543 14.25C15.7543 14.151 15.7347 14.053 15.6967 13.9616C15.6586 13.8702 15.6028 13.7872 15.5325 13.7175ZM9 13.5C9.19891 13.5 9.38968 13.421 9.53033 13.2803C9.67098 13.1397 9.75 12.9489 9.75 12.75C9.75 12.5511 9.67098 12.3603 9.53033 12.2197C9.38968 12.079 9.19891 12 9 12H6C5.80109 12 5.61032 12.079 5.46967 12.2197C5.32902 12.3603 5.25 12.5511 5.25 12.75C5.25 12.9489 5.32902 13.1397 5.46967 13.2803C5.61032 13.421 5.80109 13.5 6 13.5H9Z" fill="#0050D5"/>
</svg>
