<svg width="23" height="17" viewBox="0 0 23 17" fill="none" xmlns="http://www.w3.org/2000/svg">
<path d="M21.981 3.229C21.8564 2.76523 21.6123 2.3423 21.2729 2.00253C20.9336 1.66276 20.511 1.41808 20.0474 1.29297C18.3408 0.833984 11.5 0.833984 11.5 0.833984C11.5 0.833984 4.65918 0.833984 2.95264 1.29053C2.48882 1.41523 2.06598 1.65978 1.72658 1.99961C1.38718 2.33944 1.14316 2.76259 1.01904 3.22656C0.5625 4.93555 0.5625 8.5 0.5625 8.5C0.5625 8.5 0.5625 12.0645 1.01904 13.771C1.27051 14.7134 2.0127 15.4556 2.95264 15.707C4.65918 16.166 11.5 16.166 11.5 16.166C11.5 16.166 18.3408 16.166 20.0474 15.707C20.9897 15.4556 21.7295 14.7134 21.981 13.771C22.4375 12.0645 22.4375 8.5 22.4375 8.5C22.4375 8.5 22.4375 4.93555 21.981 3.229ZM9.32715 11.7715V5.22852L14.9912 8.47559L9.32715 11.7715Z" fill="#2E2E2E"/>
</svg>
