<svg width="48" height="48" viewBox="0 0 48 48" fill="none" xmlns="http://www.w3.org/2000/svg">
<path opacity="0.5" d="M36 16L37.8974 16.6325C39.8774 17.2925 40.8675 17.6225 41.4337 18.4081C42 19.1938 42 20.2374 42 22.3246V33.658C42 36.2398 42 37.5307 41.3206 38.3599C41.0898 38.6416 40.8097 38.8789 40.494 39.0602C39.5643 39.594 38.2909 39.3818 35.7443 38.9574C33.2314 38.5386 31.975 38.3292 30.7297 38.4334C30.2927 38.4699 29.8585 38.5352 29.43 38.6288C28.2092 38.8954 27.0599 39.4701 24.7612 40.6194C21.7618 42.1191 20.2621 42.869 18.6657 43.1001C18.1848 43.1697 17.6996 43.2042 17.2138 43.2033C15.6007 43.2002 14.0237 42.6746 10.8698 41.6233L10.1026 41.3675C8.12258 40.7075 7.13255 40.3775 6.56627 39.5919C6 38.8062 6 37.7626 6 35.6754V25.816C6 22.4982 6 20.8393 6.97683 19.9472C7.14775 19.791 7.33618 19.6552 7.53833 19.5424C8.69363 18.8979 10.2674 19.4225 13.4149 20.4716" stroke="#1C274C" strokeWidth="1.5"/>
<path d="M12 15.4006C12 9.10423 17.3726 4 24 4C30.6274 4 36 9.10423 36 15.4006C36 21.6477 32.17 28.9374 26.1944 31.5442C24.8014 32.1519 23.1986 32.1519 21.8056 31.5442C15.83 28.9374 12 21.6477 12 15.4006Z" stroke="#62207E" strokeWidth="1.5"/>
<circle cx="24" cy="16" r="4" stroke="#1C274C" strokeWidth="1.5"/>
</svg>
