<svg width="15" height="8" viewBox="0 0 15 8" fill="none" xmlns="http://www.w3.org/2000/svg">
<path d="M13.9464 1.53672L7.99635 7.50443C7.92552 7.57526 7.84879 7.62532 7.76615 7.65459C7.68351 7.68434 7.59497 7.69922 7.50052 7.69922C7.40608 7.69922 7.31754 7.68434 7.2349 7.65459C7.15226 7.62532 7.07552 7.57526 7.00469 7.50443L1.03698 1.53672C0.871701 1.37144 0.789063 1.16484 0.789063 0.916929C0.789063 0.669012 0.877604 0.456512 1.05469 0.279429C1.23177 0.102345 1.43837 0.013804 1.67448 0.013804C1.91059 0.013804 2.11719 0.102345 2.29427 0.279429L7.50052 5.48568L12.7068 0.279429C12.8721 0.114151 13.0756 0.0315123 13.3174 0.0315123C13.5596 0.0315123 13.7693 0.120054 13.9464 0.297137C14.1234 0.47422 14.212 0.680818 14.212 0.916929C14.212 1.15304 14.1234 1.35964 13.9464 1.53672Z" fill="#7F7D7D"/>
</svg>
