<svg width="18" height="18" viewBox="0 0 18 18" fill="none" xmlns="http://www.w3.org/2000/svg">
<path d="M8.68068 6.2957C9.57334 5.38356 10.7357 4.78683 12.0878 4.78683C13.5078 4.78683 14.8696 5.35091 15.8737 6.35499C16.8778 7.35907 17.4418 8.72089 17.4418 10.1409V17.4418H15.4949V10.1409C15.4949 9.23725 15.1359 8.37063 14.497 7.73168C13.858 7.09272 12.9914 6.73375 12.0878 6.73375C11.1842 6.73375 10.3176 7.09272 9.6786 7.73168C9.03964 8.37063 8.68068 9.23725 8.68068 10.1409V17.4418H6.73375V5.27356H8.68068V6.2957ZM1.86644 3.32664C1.47918 3.32664 1.10777 3.1728 0.833931 2.89896C0.560091 2.62512 0.40625 2.25371 0.40625 1.86644C0.40625 1.47918 0.560091 1.10777 0.833931 0.833931C1.10777 0.560091 1.47918 0.40625 1.86644 0.40625C2.25371 0.40625 2.62512 0.560091 2.89896 0.833931C3.1728 1.10777 3.32664 1.47918 3.32664 1.86644C3.32664 2.25371 3.1728 2.62512 2.89896 2.89896C2.62512 3.1728 2.25371 3.32664 1.86644 3.32664ZM0.892981 5.27356H2.83991V17.4418H0.892981V5.27356Z" fill="#0050D5" fill-opacity="0.7"/>
</svg>
