<svg width="21" height="17" viewBox="0 0 21 17" fill="none" xmlns="http://www.w3.org/2000/svg">
<path d="M2.89224 16.4699C2.35683 16.4699 1.89866 16.2795 1.51771 15.8985C1.13611 15.5169 0.945312 15.0584 0.945312 14.523V2.84146C0.945312 2.30605 1.13611 1.84787 1.51771 1.46693C1.89866 1.08533 2.35683 0.894531 2.89224 0.894531H18.4676C19.003 0.894531 19.4615 1.08533 19.8431 1.46693C20.2241 1.84787 20.4146 2.30605 20.4146 2.84146V14.523C20.4146 15.0584 20.2241 15.5169 19.8431 15.8985C19.4615 16.2795 19.003 16.4699 18.4676 16.4699H2.89224ZM18.4676 4.78838L11.191 9.33931C11.1099 9.38799 11.0245 9.42433 10.935 9.44834C10.8461 9.473 10.7611 9.48533 10.6799 9.48533C10.5988 9.48533 10.5138 9.473 10.4249 9.44834C10.3353 9.42433 10.25 9.38799 10.1689 9.33931L2.89224 4.78838V14.523H18.4676V4.78838ZM10.6799 7.70877L18.4676 2.84146H2.89224L10.6799 7.70877ZM2.89224 4.78838V5.03174V3.59589V3.62023V2.84146V3.62023V3.60757V5.03174V4.78838V14.523V4.78838Z" fill="#0050D5" fill-opacity="0.7"/>
</svg>
